<?xml version="1.0" encoding="UTF-8" standalone="no"?>
<svg
   height="330mm"
   version="1.1"
   viewBox="0 0 330 330"
   width="330mm"
   id="svg69"
   sodipodi:docname="AristonTestdisk.svg"
   inkscape:version="1.1.2 (0a00cf5339, 2022-02-04)"
   xmlns:inkscape="http://www.inkscape.org/namespaces/inkscape"
   xmlns:sodipodi="http://sodipodi.sourceforge.net/DTD/sodipodi-0.dtd"
   xmlns="http://www.w3.org/2000/svg"
   xmlns:svg="http://www.w3.org/2000/svg">
  <sodipodi:namedview
     id="namedview71"
     pagecolor="#ffffff"
     bordercolor="#666666"
     borderopacity="1.0"
     inkscape:pageshadow="2"
     inkscape:pageopacity="0.0"
     inkscape:pagecheckerboard="0"
     inkscape:document-units="mm"
     showgrid="false"
     inkscape:zoom="0.69994318"
     inkscape:cx="612.90689"
     inkscape:cy="623.62205"
     inkscape:window-width="3840"
     inkscape:window-height="2083"
     inkscape:window-x="0"
     inkscape:window-y="40"
     inkscape:window-maximized="1"
     inkscape:current-layer="svg69" />
  <defs
     id="defs2" />
  <circle
     cx="165"
     cy="165"
     fill="none"
     r="165"
     stroke="black"
     id="circle4" />
  <circle
     cx="165"
     cy="165"
     fill="none"
     r="5"
     stroke="blue"
     id="circle6" />
  <circle
     cx="201.5"
     cy="165"
     fill="none"
     r="3"
     stroke="blue"
     id="circle8" />
  <circle
     cx="165"
     cy="201.5"
     fill="none"
     r="3"
     stroke="blue"
     id="circle10" />
  <circle
     cx="128.5"
     cy="165"
     fill="none"
     r="3"
     stroke="blue"
     id="circle12" />
  <circle
     cx="165"
     cy="128.5"
     fill="none"
     r="3"
     stroke="blue"
     id="circle14" />
  <path
     d="M165,215 a50,50 0 1 1 0.1,0"
     fill="none"
     id="MyTextPath"
     stroke="none" />
  <g
     aria-label="https://github.com/chbergmann/midi2organette"
     id="text19">
    <path
       d="m 158.12443,218.59174 0.30132,-3.94946 1.075,0.082 -0.29864,3.91441 q -0.0709,0.92894 0.25614,1.41812 0.32702,0.48919 1.05147,0.54446 0.87052,0.0664 1.41531,-0.45028 0.54479,-0.5167 0.61789,-1.47485 l 0.28215,-3.69824 1.08084,0.0825 -0.69355,9.09077 -1.08085,-0.0825 0.2719,-3.56386 q -0.43062,0.56066 -0.97288,0.81311 -0.5481,0.25201 -1.23166,0.19986 -1.12758,-0.086 -1.65249,-0.83124 -0.52536,-0.73938 -0.42195,-2.09481 z"
       style="font-size:12px;fill:none;stroke:#ff0000"
       id="path73" />
    <path
       d="m 153.59291,222.30132 0.36857,-1.82647 -2.17683,-0.43927 0.16575,-0.82133 2.17682,0.43927 0.70469,-3.49211 q 0.15878,-0.78688 -0.009,-1.05376 -0.17305,-0.26804 -0.83357,-0.40133 l -1.08554,-0.21906 0.17849,-0.88451 1.08554,0.21905 q 1.22339,0.24688 1.59706,0.7945 0.37251,0.55337 0.12911,1.75953 l -0.70468,3.49211 0.77538,0.15646 -0.16574,0.82134 -0.77539,-0.15647 -0.36857,1.82647 z"
       style="font-size:12px;fill:none;stroke:#ff0000"
       id="path75" />
    <path
       d="m 148.25427,220.97339 0.5397,-1.78341 -2.1255,-0.64323 0.24269,-0.80197 2.12551,0.64323 1.03188,-3.40978 q 0.23251,-0.76833 0.0912,-1.04984 -0.14692,-0.28321 -0.79186,-0.47839 l -1.05995,-0.32077 0.26136,-0.86366 1.05995,0.32077 q 1.19455,0.3615 1.51473,0.94202 0.31849,0.58612 -0.0379,1.76384 l -1.03189,3.40979 0.75711,0.22912 -0.2427,0.80197 -0.7571,-0.22912 -0.5397,1.78341 z"
       style="font-size:12px;fill:none;stroke:#ff0000"
       id="path77" />
    <path
       d="m 145.86947,212.28139 1.41261,-3.18091 0.99068,0.43995 -3.67659,8.27894 -0.99069,-0.43996 0.40429,-0.91036 q -0.54841,0.39758 -1.13381,0.44534 -0.59313,0.0507 -1.2518,-0.24176 -1.09244,-0.48514 -1.38727,-1.65469 -0.30019,-1.17192 0.32763,-2.58566 0.62783,-1.41373 1.69854,-1.97685 1.06535,-0.5655 2.15778,-0.0804 0.65868,0.29251 1.02113,0.7612 0.35471,0.47168 0.4275,1.14512 z m -4.28213,0.60512 q -0.48276,1.08708 -0.30642,1.90267 0.16861,0.81858 0.95045,1.16578 0.78184,0.34721 1.50753,-0.0742 0.71795,-0.41845 1.20072,-1.50553 0.48276,-1.08708 0.31415,-1.90565 -0.17634,-0.8156 -0.95818,-1.16281 -0.78184,-0.3472 -1.4998,0.0712 -0.72569,0.42143 -1.20845,1.50851 z"
       style="font-size:12px;fill:none;stroke:#ff0000"
       id="path79" />
    <path
       d="m 133.42871,211.72178 0.53895,-0.86543 q 0.26405,0.44055 0.6199,0.80021 0.35585,0.35966 0.80348,0.63843 0.68141,0.42435 1.15469,0.42917 0.4683,0.002 0.72849,-0.41606 0.19824,-0.31832 0.0691,-0.65413 -0.13221,-0.33083 -0.76611,-0.95338 l -0.26998,-0.26477 q -0.84476,-0.816 -1.01411,-1.45296 -0.17741,-0.6351 0.24694,-1.3165 0.4832,-0.7759 1.38181,-0.84443 0.89364,-0.0716 1.96797,0.59742 0.44763,0.27877 0.87931,0.67184 0.42979,0.38501 0.85855,0.89361 l -0.58852,0.94501 q -0.34315,-0.57954 -0.75192,-1.02048 -0.41187,-0.43596 -0.89432,-0.73642 -0.64659,-0.40266 -1.13104,-0.40064 -0.48755,0.007 -0.73844,0.40987 -0.23231,0.37303 -0.10254,0.72995 0.12479,0.35383 0.86069,1.06752 l 0.27186,0.27284 q 0.739,0.70871 0.8878,1.31218 0.14569,0.60843 -0.25697,1.25502 -0.4894,0.78585 -1.31284,0.86668 -0.82344,0.0808 -1.84803,-0.55724 -0.50732,-0.31594 -0.9085,-0.66932 -0.40117,-0.35337 -0.68625,-0.73799 z"
       style="font-size:12px;fill:none;stroke:#ff0000"
       id="path81" />
    <path
       d="m 134.00532,206.08455 -0.97692,-0.75771 0.91212,-1.17601 0.97693,0.75771 z m -2.89079,3.72713 -0.97692,-0.75771 0.91212,-1.17601 0.97693,0.75771 z"
       style="font-size:12px;fill:none;stroke:#ff0000"
       id="path83" />
    <path
       d="m 124.68307,207.6958 -0.73551,-0.67175 8.90003,-5.22673 0.7355,0.67174 z"
       style="font-size:12px;fill:none;stroke:#ff0000"
       id="path85" />
    <path
       d="m 121.36895,204.29939 -0.6792,-0.72862 9.29087,-4.49543 0.67921,0.72861 z"
       style="font-size:12px;fill:none;stroke:#ff0000"
       id="path87" />
    <path
       d="m 121.07098,195.26723 q -0.94395,0.69444 -1.17493,1.46812 -0.23445,0.76896 0.28291,1.47221 0.51389,0.69852 1.32126,0.70831 0.80389,0.005 1.74784,-0.68936 0.93923,-0.69098 1.17368,-1.45994 0.23098,-0.77368 -0.28291,-1.4722 -0.51736,-0.70325 -1.32126,-0.70832 -0.80736,-0.01 -1.74659,0.68118 z m 1.40948,-2.37538 q 1.34985,-0.99305 2.44686,-0.87628 1.10174,0.11329 2.01146,1.34987 0.33681,0.45781 0.56462,0.91579 0.23253,0.45451 0.37219,0.94098 l -0.84483,0.62152 q -0.0736,-0.53507 -0.24877,-0.98085 -0.17519,-0.44578 -0.45992,-0.83279 -0.62847,-0.85428 -1.38934,-0.94919 -0.75616,-0.0984 -1.65763,0.5648 l -0.4295,0.31597 q 0.66517,-0.0747 1.20547,0.1752 0.54029,0.24992 0.97085,0.83516 0.71528,0.97227 0.41178,2.1121 -0.30351,1.13982 -1.52592,2.03913 -1.22713,0.90277 -2.40563,0.85322 -1.1785,-0.0496 -1.89378,-1.02181 -0.43055,-0.58525 -0.50831,-1.17545 -0.0778,-0.59019 0.19158,-1.20297 l -0.80236,0.59028 -0.63889,-0.86843 z"
       style="font-size:12px;fill:none;stroke:#ff0000"
       id="path89" />
    <path
       d="m 116.33964,193.77303 -0.5403,-0.93297 5.67894,-3.28877 0.5403,0.93297 z m -2.21073,1.28027 -0.5403,-0.93297 1.18142,-0.68418 0.5403,0.93297 z"
       style="font-size:12px;fill:none;stroke:#ff0000"
       id="path91" />
    <path
       d="m 112.33668,190.2263 1.68239,-0.80086 -0.95448,-2.00511 0.75655,-0.36014 0.95448,2.00512 3.21665,-1.53119 q 0.7248,-0.34503 0.83795,-0.639 0.11064,-0.29925 -0.17898,-0.90767 l -0.47598,-0.99991 0.81474,-0.38784 0.47598,0.99992 q 0.53642,1.12688 0.32246,1.75437 -0.21925,0.63001 -1.33026,1.15888 l -3.21666,1.53119 0.33999,0.71422 -0.75655,0.36014 -0.33998,-0.71423 -1.6824,0.80086 z"
       style="font-size:12px;fill:none;stroke:#ff0000"
       id="path93" />
    <path
       d="m 112.94684,179.36304 3.75945,-1.2472 0.33948,1.02329 -3.72609,1.23612 q -0.88425,0.29335 -1.20921,0.78391 -0.32496,0.49055 -0.0962,1.18016 0.2749,0.82864 0.96189,1.13164 0.687,0.303 1.59905,4.3e-4 l 3.52032,-1.16787 0.34132,1.02885 -8.65342,2.87077 -0.34132,-1.02885 3.39241,-1.12543 q -0.68346,-0.1807 -1.12573,-0.58341 -0.44412,-0.40828 -0.65998,-1.05895 -0.35608,-1.07334 0.12863,-1.84531 0.47915,-0.77012 1.76938,-1.19815 z"
       style="font-size:12px;fill:none;stroke:#ff0000"
       id="path95" />
    <path
       d="m 113.65894,176.55924 -3.91727,0.66108 -0.1794,-1.06309 3.87682,-0.65425 q 0.91865,-0.15504 1.32041,-0.59126 0.39599,-0.43524 0.27508,-1.15167 -0.14528,-0.86088 -0.77801,-1.26513 -0.63371,-0.41003 -1.58125,-0.25012 l -3.66883,0.61915 -0.17941,-1.06309 6.471,-1.09205 0.17941,1.0631 -0.99376,0.1677 q 0.65465,0.28765 1.03031,0.75311 0.36891,0.46066 0.483,1.13665 0.18818,1.11509 -0.40764,1.80987 -0.59582,0.69477 -1.93046,0.92 z"
       style="font-size:12px;fill:none;stroke:#ff0000"
       id="path97" />
    <path
       d="m 111.75082,163.82987 q -1.18931,0.0187 -1.85532,0.52139 -0.67197,0.49695 -0.65853,1.35231 0.0134,0.85536 0.70077,1.33681 0.68139,0.47569 1.8707,0.457 1.1893,-0.0187 1.86127,-0.51563 0.66601,-0.50271 0.65257,-1.35807 -0.0134,-0.85536 -0.69482,-1.33105 -0.68734,-0.48145 -1.87664,-0.46276 z m -2.23312,3.7035 q -0.5912,-0.3306 -0.88052,-0.84174 -0.29526,-0.51691 -0.30658,-1.23753 -0.0188,-1.19516 0.91863,-1.95412 0.93732,-0.76482 2.48401,-0.78912 1.54668,-0.0243 2.50757,0.7107 0.96079,0.72914 0.97956,1.92431 0.0113,0.72061 -0.2617,1.24645 -0.27897,0.52007 -0.8595,0.86907 l 0.98425,-0.0155 0.017,1.08385 -9.11606,0.14322 -0.017,-1.08385 z"
       style="font-size:12px;fill:none;stroke:#ff0000"
       id="path99" />
    <path
       d="m 113.74821,160.5793 0.12019,-1.23047 1.48123,0.14469 -0.12019,1.23047 z"
       style="font-size:12px;fill:none;stroke:#ff0000"
       id="path101" />
    <path
       d="m 110.39446,151.18969 0.98737,0.202 q -0.33845,0.39726 -0.55177,0.82609 -0.21789,0.42192 -0.31184,0.88116 -0.21022,1.02755 0.32793,1.72973 0.53241,0.70102 1.70921,0.94176 1.1768,0.24075 1.94748,-0.19368 0.76494,-0.4356 0.97515,-1.46314 0.0939,-0.45924 0.065,-0.93166 -0.0335,-0.47934 -0.18875,-0.97759 l 0.97588,0.19964 q 0.11623,0.4843 0.12209,0.9819 0.007,0.49185 -0.10219,1.02572 -0.29712,1.45234 -1.38484,2.12094 -1.08772,0.66861 -2.63765,0.35153 -1.57289,-0.32178 -2.29799,-1.36723 -0.72392,-1.05119 -0.41623,-2.5552 0.0998,-0.48794 0.29827,-0.93178 0.19271,-0.44501 0.48288,-0.84019 z"
       style="font-size:12px;fill:none;stroke:#ff0000"
       id="path103" />
    <path
       d="m 112.46771,146.29704 q -0.29116,0.81684 0.17988,1.51971 0.46552,0.70089 1.57489,1.09633 1.10936,0.39543 1.91682,0.1545 0.8039,-0.24841 1.09703,-1.07077 0.2892,-0.81133 -0.18185,-1.51419 -0.47104,-0.70287 -1.57488,-1.09633 -1.09833,-0.3915 -1.90775,-0.14506 -0.81494,0.24448 -1.10414,1.05581 z m -0.861,-0.3069 q 0.47216,-1.32462 1.60268,-1.77385 1.13053,-0.44923 2.65384,0.0937 1.51778,0.54101 2.11478,1.60602 0.59148,1.06303 0.11932,2.38765 -0.47413,1.33013 -1.60465,1.77937 -1.13408,0.44174 -2.65186,-0.0993 -1.52331,-0.54298 -2.11676,-1.6005 -0.59147,-1.06304 -0.11735,-2.39317 z"
       style="font-size:12px;fill:none;stroke:#ff0000"
       id="path105" />
    <path
       d="m 117.60496,136.60768 q -0.41974,-0.71775 -0.43111,-1.37789 -0.0114,-0.66014 0.37622,-1.31587 0.52177,-0.88272 1.42544,-0.99517 0.89863,-0.11544 2.03859,0.55839 l 3.40979,2.01552 -0.55158,0.93315 -3.37953,-1.99763 q -0.8121,-0.48003 -1.37549,-0.42508 -0.56338,0.055 -0.91222,0.64511 -0.42636,0.7213 -0.19464,1.42321 0.23172,0.7019 1.05894,1.19088 l 3.1929,1.88731 -0.55158,0.93315 -3.37953,-1.99763 q -0.81714,-0.48301 -1.37548,-0.42507 -0.56339,0.055 -0.91819,0.65519 -0.4204,0.71122 -0.18364,1.41611 0.23172,0.7019 1.05391,1.18789 l 3.1929,1.88732 -0.55159,0.93315 -5.64936,-3.33933 0.55158,-0.93315 0.87767,0.51879 q -0.3317,-0.62488 -0.31648,-1.21485 0.0152,-0.58997 0.37598,-1.20031 0.36375,-0.61537 0.92991,-0.85927 0.56914,-0.24893 1.28659,-0.10392 z"
       style="font-size:12px;fill:none;stroke:#ff0000"
       id="path107" />
    <path
       d="m 120.39994,126.8513 0.6349,-0.76753 5.65651,8.63326 -0.6349,0.76753 z"
       style="font-size:12px;fill:none;stroke:#ff0000"
       id="path109" />
    <path
       d="m 127.50601,123.00581 0.7043,0.72086 q -0.50297,0.13918 -0.92006,0.37466 -0.41698,0.22719 -0.75226,0.55478 -0.7502,0.73297 -0.6983,1.61614 0.0478,0.87897 0.88724,1.73813 0.83944,0.85916 1.72116,0.93155 0.87762,0.0682 1.62782,-0.66477 0.33528,-0.32759 0.57619,-0.73499 0.24101,-0.4157 0.39183,-0.91531 l 0.69612,0.71248 q -0.1753,0.46618 -0.44945,0.88148 -0.26995,0.41122 -0.65972,0.79204 -1.06033,1.03598 -2.33587,0.97974 -1.27554,-0.0563 -2.38114,-1.18783 -1.12198,-1.14834 -1.13621,-2.42055 -0.01,-1.27631 1.08801,-2.34915 0.35623,-0.34806 0.76941,-0.60431 0.40909,-0.26043 0.87093,-0.42495 z"
       style="font-size:12px;fill:none;stroke:#ff0000"
       id="path111" />
    <path
       d="m 135.40544,119.87677 2.34116,3.195 -0.86964,0.63724 -2.32038,-3.16664 q -0.55066,-0.75148 -1.11729,-0.91014 -0.56663,-0.15866 -1.1527,0.27079 -0.70422,0.51602 -0.78167,1.26286 -0.0774,0.74684 0.49052,1.52196 l 2.19224,2.99176 -0.87437,0.6407 -5.38883,-7.35415 0.87437,-0.6407 2.11259,2.88305 q -0.0378,-0.70593 0.20963,-1.25048 0.2522,-0.54801 0.80518,-0.95321 0.91218,-0.66841 1.79568,-0.44411 0.88003,0.21957 1.68351,1.31607 z"
       style="font-size:12px;fill:none;stroke:#ff0000"
       id="path113" />
    <path
       d="m 142.24887,116.85675 q -0.54946,-1.05494 -1.29726,-1.42519 -0.74531,-0.37817 -1.50403,0.017 -0.75872,0.39518 -0.88127,1.22536 -0.12005,0.82228 0.42941,1.87722 0.54947,1.05493 1.29477,1.43309 0.7478,0.37026 1.50652,-0.0249 0.75873,-0.39518 0.87878,-1.21746 0.12255,-0.83019 -0.42692,-1.88512 z m -4.31148,-0.33751 q 0.0307,-0.67666 0.35813,-1.1643 0.32988,-0.49554 0.96908,-0.82846 1.06013,-0.55217 2.1586,-0.0541 1.10367,0.49541 1.81824,1.86735 0.71458,1.37193 0.48789,2.56026 -0.2215,1.18562 -1.28163,1.73779 -0.6392,0.33293 -1.23163,0.32439 -0.58994,-0.0164 -1.16202,-0.37913 l 0.45473,0.87305 -0.96139,0.50074 -4.21166,-8.0861 0.96139,-0.50075 z"
       style="font-size:12px;fill:none;stroke:#ff0000"
       id="path115" />
    <path
       d="m 150.58561,113.40193 0.1706,0.49898 -4.69047,1.60365 q 0.42669,1.03067 1.18176,1.39175 0.75873,0.35364 1.77333,0.007 0.58769,-0.20093 1.08729,-0.53274 0.50515,-0.33371 0.94992,-0.80778 l 0.32983,0.96471 q -0.46927,0.42052 -1.00418,0.73963 -0.5349,0.31912 -1.12814,0.52194 -1.48587,0.50801 -2.65203,-0.0593 -1.16062,-0.5692 -1.66483,-2.04398 -0.52128,-1.52468 -0.006,-2.69786 0.51902,-1.18061 1.91618,-1.65829 1.25301,-0.4284 2.25607,0.13275 1.0067,0.55371 1.48059,1.93978 z m -1.12251,0.0494 q -0.29732,-0.8334 -0.9281,-1.17505 -0.62523,-0.34355 -1.37925,-0.0857 -0.85382,0.29191 -1.20453,0.95055 -0.34516,0.65675 -0.12328,1.55928 z"
       style="font-size:12px;fill:none;stroke:#ff0000"
       id="path117" />
    <path
       d="m 156.05622,110.18041 q -0.19941,-0.066 -0.42121,-0.0674 -0.21727,-0.008 -0.4696,0.0445 -0.89463,0.18748 -1.25377,0.87338 -0.3546,0.67897 -0.12626,1.76858 l 0.70908,3.38353 -1.06094,0.22234 -1.34604,-6.42297 1.06094,-0.22234 0.20911,0.99785 q 0.21004,-0.65465 0.68448,-1.04743 0.47325,-0.3985 1.23598,-0.55835 0.10896,-0.0228 0.24446,-0.0333 0.13431,-0.0162 0.30089,-0.0212 z"
       style="font-size:12px;fill:none;stroke:#ff0000"
       id="path119" />
    <path
       d="m 162.13388,111.76624 q -0.0976,-1.1678 -0.63589,-1.7696 -0.53247,-0.60228 -1.40249,-0.52958 -0.86417,0.0722 -1.29514,0.755 -0.42513,0.68231 -0.32755,1.85011 0.0971,1.16197 0.62957,1.76425 0.53831,0.6018 1.40249,0.52958 0.87001,-0.0727 1.29514,-0.755 0.43097,-0.68279 0.33387,-1.84476 z m 1.28614,2.44436 q 0.13955,1.66997 -0.53419,2.54356 -0.67324,0.87942 -2.20307,1.00726 -0.56638,0.0473 -1.07586,0.002 -0.50899,-0.0398 -0.99659,-0.17543 l -0.0873,-1.04518 q 0.49443,0.21739 0.96596,0.30146 0.47153,0.0841 0.95033,0.0441 1.05686,-0.0883 1.53602,-0.68694 0.47965,-0.59278 0.38645,-1.70803 l -0.0444,-0.53135 q -0.28452,0.60587 -0.78028,0.93541 -0.49577,0.32954 -1.21981,0.39004 -1.20284,0.10051 -2.01516,-0.75474 -0.81232,-0.85525 -0.93869,-2.36755 -0.12686,-1.51815 0.53225,-2.49635 0.65912,-0.97821 1.86196,-1.07872 0.72404,-0.0605 1.26762,0.18218 0.54358,0.24269 0.92471,0.79294 l -0.083,-0.99263 1.07438,-0.0898 z"
       style="font-size:12px;fill:none;stroke:#ff0000"
       id="path121" />
    <path
       d="m 171.37386,110.12259 q 0.47921,-0.67949 1.07525,-0.96347 0.59605,-0.28398 1.35346,-0.20305 1.01958,0.10894 1.4965,0.88471 0.47754,0.76994 0.33684,2.08666 l -0.42084,3.93852 -1.07785,-0.11517 0.41711,-3.90356 q 0.10023,-0.93802 -0.18331,-1.42795 -0.28353,-0.48993 -0.9652,-0.56277 -0.83315,-0.089 -1.37586,0.41279 -0.54272,0.50182 -0.64482,1.45732 l -0.39407,3.68799 -1.07785,-0.11517 0.41711,-3.90356 q 0.10085,-0.94385 -0.18331,-1.42795 -0.28353,-0.48993 -0.97685,-0.56401 -0.8215,-0.0878 -1.36484,0.41986 -0.54271,0.50182 -0.64419,1.45149 l -0.39407,3.68799 -1.07785,-0.11517 0.69725,-6.52535 1.07785,0.11517 -0.10832,1.01376 q 0.43117,-0.56088 0.97438,-0.79158 0.54321,-0.2307 1.24819,-0.15537 0.71079,0.0759 1.16742,0.49009 0.46246,0.41477 0.62787,1.12778 z"
       style="font-size:12px;fill:none;stroke:#ff0000"
       id="path123" />
    <path
       d="m 181.11527,114.22973 q -1.24935,-0.38266 -1.81868,-0.2445 -0.56932,0.13815 -0.78039,0.82725 -0.16816,0.54905 0.0909,0.98381 0.26635,0.43088 0.88823,0.62135 0.85718,0.26255 1.55793,-0.18465 0.70807,-0.45109 1.01694,-1.45954 l 0.0704,-0.2297 z m 2.18653,0.20397 -1.0965,3.57998 -1.03086,-0.31573 0.29171,-0.95242 q -0.52798,0.46334 -1.1387,0.57656 -0.60899,0.10762 -1.37093,-0.12575 -0.96363,-0.29514 -1.37035,-1.00801 -0.3994,-0.71675 -0.12141,-1.62435 0.32431,-1.05887 1.19496,-1.3805 0.87624,-0.31991 2.28247,0.1108 l 1.44544,0.44272 0.0309,-0.10085 q 0.21793,-0.71151 -0.13428,-1.24222 -0.34489,-0.5346 -1.19086,-0.79371 -0.53784,-0.16474 -1.08713,-0.19203 -0.54929,-0.0273 -1.09883,0.0863 l 0.29171,-0.95242 q 0.63277,-0.0452 1.19761,0.0114 0.56655,0.051 1.07078,0.2054 1.3614,0.41698 1.81749,1.32881 0.45608,0.91183 0.0168,2.34606 z"
       style="font-size:12px;fill:none;stroke:#ff0000"
       id="path125" />
    <path
       d="m 190.91525,117.6097 -1.71454,3.57063 -0.97189,-0.46668 1.69932,-3.53893 q 0.40328,-0.83984 0.27616,-1.41437 -0.12712,-0.57453 -0.78208,-0.88903 -0.78702,-0.37791 -1.48222,-0.0942 -0.6952,0.28367 -1.11115,1.14991 l -1.60548,3.34351 -0.97717,-0.46922 2.84066,-5.91583 0.97716,0.46921 -0.44131,0.91907 q 0.60478,-0.36609 1.20169,-0.40445 0.60219,-0.0358 1.22019,0.26091 1.01942,0.48951 1.23798,1.37444 0.2211,0.87965 -0.36732,2.10507 z"
       style="font-size:12px;fill:none;stroke:#ff0000"
       id="path127" />
    <path
       d="m 197.80428,122.07874 -2.23625,3.26928 -0.88986,-0.60868 2.2164,-3.24027 q 0.52598,-0.76895 0.48748,-1.35612 -0.0385,-0.58716 -0.6382,-0.99736 -0.7206,-0.4929 -1.45078,-0.31795 -0.73018,0.17495 -1.2727,0.96809 l -2.09401,3.06132 -0.8947,-0.61199 3.70503,-5.41656 0.8947,0.61199 -0.5756,0.8415 q 0.6533,-0.27012 1.24913,-0.21752 0.60066,0.0559 1.1665,0.44296 0.93339,0.63846 1.01521,1.5463 0.0851,0.90301 -0.68235,2.02501 z"
       style="font-size:12px;fill:none;stroke:#ff0000"
       id="path129" />
    <path
       d="m 204.39202,121.40965 0.75149,0.65381 -8.77139,5.43985 -0.75148,-0.65381 z"
       style="font-size:12px;fill:none;stroke:#ff0000"
       id="path131" />
    <path
       d="m 207.69972,129.83626 q 0.81645,-0.15737 1.44285,0.0513 0.62641,0.20865 1.11607,0.79213 0.65916,0.78545 0.46492,1.67513 -0.18974,0.88592 -1.2041,1.73717 l -3.03409,2.54624 -0.69682,-0.83034 3.00716,-2.52363 q 0.72262,-0.60643 0.85801,-1.15606 0.13539,-0.54963 -0.30531,-1.07476 -0.53862,-0.64183 -1.27764,-0.65653 -0.73902,-0.0147 -1.4751,0.60303 l -2.8411,2.38427 -0.69682,-0.83034 3.00716,-2.52363 q 0.72711,-0.61019 0.85801,-1.15606 0.13539,-0.54963 -0.31284,-1.08373 -0.53109,-0.63285 -1.2746,-0.64379 -0.73902,-0.0147 -1.47061,0.59926 l -2.8411,2.38427 -0.69682,-0.83033 5.0269,-4.21862 0.69682,0.83034 -0.78096,0.65539 q 0.69959,-0.1052 1.25098,0.10521 0.55139,0.2104 1.00715,0.75349 0.45953,0.54757 0.50141,1.16261 0.0457,0.61952 -0.32953,1.248 z"
       style="font-size:12px;fill:none;stroke:#ff0000"
       id="path133" />
    <path
       d="m 213.08565,135.15776 0.56189,0.92013 -5.60077,3.42021 -0.56189,-0.92013 z m 2.1803,-1.33143 0.56189,0.92012 -1.16516,0.71153 -0.56189,-0.92013 z"
       style="font-size:12px;fill:none;stroke:#ff0000"
       id="path135" />
    <path
       d="m 216.09244,142.97949 3.21526,-1.50671 0.45748,0.97625 -8.25567,3.86872 -0.45748,-0.97625 0.89135,-0.4177 q -0.67477,-0.0591 -1.15603,-0.40948 -0.47347,-0.34756 -0.78178,-1.00546 -0.50472,-1.07706 0.0366,-2.15898 0.54376,-1.0766 1.94447,-1.73299 1.4007,-0.65639 2.57599,-0.38535 1.17777,0.27634 1.6825,1.3534 0.3083,0.65791 0.26712,1.24664 -0.0334,0.59155 -0.41976,1.14791 z m -3.63345,-2.35452 q -1.07706,0.50472 -1.48615,1.23351 -0.40131,0.73161 -0.0383,1.50624 0.36301,0.77463 1.18201,0.93438 0.82432,0.15727 1.90137,-0.34746 1.07706,-0.50472 1.47837,-1.23633 0.40661,-0.73409 0.0436,-1.50872 -0.363,-0.77463 -1.18731,-0.9319 -0.81652,-0.15444 -1.89358,0.35028 z"
       style="font-size:12px;fill:none;stroke:#ff0000"
       id="path137" />
    <path
       d="m 218.44183,146.31146 0.34714,1.02071 -6.21301,2.11303 -0.34714,-1.02071 z m 2.41864,-0.82257 0.34714,1.02071 -1.29253,0.43958 -0.34714,-1.02071 z"
       style="font-size:12px;fill:none;stroke:#ff0000"
       id="path139" />
    <path
       d="m 214.52288,152.51773 0.89003,4.03384 -0.97269,0.21462 -1.19682,-5.42422 0.9727,-0.21462 q 0.82607,0.50777 2.22039,1.38818 1.4013,0.88487 1.79755,1.10346 0.74613,0.4174 1.22323,0.54014 0.48409,0.12721 0.90178,0.035 0.68089,-0.15024 1.00397,-0.72555 0.32435,-0.56959 0.15518,-1.3363 -0.11993,-0.54357 -0.44257,-1.10842 -0.32138,-0.55912 -0.85623,-1.16114 l 1.16724,-0.25755 q 0.43438,0.6362 0.71125,1.21114 0.27686,0.57495 0.38796,1.07846 0.29289,1.32745 -0.19661,2.26349 -0.48951,0.93605 -1.59953,1.18097 -0.5264,0.11615 -1.04549,0.0207 -0.51211,-0.091 -1.26783,-0.4703 -0.19749,-0.10643 -1.16198,-0.69767 -0.95877,-0.59249 -2.69153,-1.67425 z"
       style="font-size:12px;fill:none;stroke:#ff0000"
       id="path141" />
    <path
       d="m 220.7284,161.23024 q -0.0583,-0.86523 -0.77027,-1.32233 -0.70616,-0.4575 -1.88124,-0.37837 -1.17507,0.0791 -1.81976,0.62171 -0.63845,0.54804 -0.57979,1.41912 0.0579,0.85938 0.76987,1.31648 0.71201,0.4571 1.88123,0.37837 1.16339,-0.0783 1.80768,-0.62677 0.65015,-0.54883 0.59228,-1.40821 z m 0.91199,-0.0614 q 0.0945,1.40307 -0.76358,2.2654 -0.85807,0.86234 -2.4716,0.97099 -1.60769,0.10825 -2.57946,-0.63086 -0.96593,-0.73951 -1.06041,-2.14258 -0.0949,-1.40892 0.76319,-2.27125 0.86431,-0.85688 2.47199,-0.96514 1.61354,-0.10865 2.57907,0.62501 0.96593,0.73951 1.0608,2.14843 z"
       style="font-size:12px;fill:none;stroke:#ff0000"
       id="path143" />
    <path
       d="m 220.39113,170.50899 q 0.11494,-0.17581 0.17322,-0.38982 0.0638,-0.20785 0.0775,-0.4653 0.0484,-0.91278 -0.52237,-1.43592 -0.56523,-0.51697 -1.67695,-0.5759 l -3.45218,-0.183 0.0574,-1.08247 6.5533,0.34739 -0.0574,1.08247 -1.0181,-0.054 q 0.57883,0.371 0.83669,0.93036 0.26371,0.55967 0.22246,1.33787 -0.006,0.11117 -0.0306,0.24482 -0.0188,0.13396 -0.0568,0.29624 z"
       style="font-size:12px;fill:none;stroke:#ff0000"
       id="path145" />
    <path
       d="m 217.30128,175.97632 q 1.15374,0.20538 1.87352,-0.16047 0.71876,-0.36008 0.87177,-1.21961 0.15197,-0.85377 -0.39735,-1.44553 -0.55036,-0.58598 -1.7041,-0.79136 -1.14797,-0.20435 -1.86672,0.15573 -0.71979,0.36585 -0.87177,1.21961 -0.153,0.85954 0.39735,1.44553 0.54933,0.59175 1.6973,0.7961 z m -2.69256,0.61578 q -1.64985,-0.29369 -2.32128,-1.16904 -0.67721,-0.87639 -0.40817,-2.38779 0.0996,-0.55956 0.27445,-1.04027 0.16907,-0.48173 0.42531,-0.91818 l 1.0326,0.1838 q -0.337,0.42209 -0.53927,0.85625 -0.20226,0.43416 -0.28647,0.90719 -0.18586,1.04414 0.26975,1.66087 0.44984,0.61571 1.55166,0.81184 l 0.52495,0.0934 q -0.51257,-0.43048 -0.70384,-0.99421 -0.19128,-0.56373 -0.064,-1.27905 0.21154,-1.18835 1.24661,-1.75398 1.03507,-0.56564 2.52916,-0.29968 1.49986,0.26699 2.27616,1.15506 0.7763,0.88807 0.56476,2.07642 -0.12733,0.71532 -0.50139,1.17842 -0.37405,0.4631 -1.00369,0.69025 l 0.98068,0.17457 -0.18894,1.06144 z"
       style="font-size:12px;fill:none;stroke:#ff0000"
       id="path147" />
    <path
       d="m 215.41569,182.48732 q 0.41828,-1.23788 0.29649,-1.81093 -0.12179,-0.57305 -0.80457,-0.80376 -0.544,-0.18382 -0.98601,0.0627 -0.43833,0.2539 -0.64653,0.87007 -0.28699,0.84931 0.13996,1.56258 0.43062,0.7207 1.42981,1.05833 l 0.22759,0.0769 z m -0.26651,2.17979 -3.54711,-1.19859 0.34513,-1.02139 0.94367,0.31888 q -0.44803,-0.54104 -0.54371,-1.15475 -0.0901,-0.61183 0.16496,-1.36677 0.32262,-0.95478 1.04685,-1.34092 0.72789,-0.37871 1.62716,-0.0748 1.04915,0.35451 1.34571,1.23401 0.29468,0.88505 -0.17613,2.27836 l -0.48393,1.43217 0.0999,0.0338 q 0.70498,0.23821 1.24556,-0.0986 0.54426,-0.32943 0.82749,-1.16764 0.18007,-0.5329 0.22308,-1.08118 0.043,-0.54829 -0.0548,-1.10086 l 0.94368,0.31887 q 0.027,0.63381 -0.0457,1.1968 -0.0672,0.56486 -0.23599,1.06445 -0.4558,1.3489 -1.38031,1.77869 -0.92452,0.42978 -2.34558,-0.0504 z"
       style="font-size:12px;fill:none;stroke:#ff0000"
       id="path149" />
    <path
       d="m 211.75573,192.18652 -3.51996,-1.81628 0.49437,-0.9581 3.48872,1.80016 q 0.82792,0.4272 1.40586,0.31663 0.57794,-0.11058 0.9111,-0.75626 0.40034,-0.77585 0.13673,-1.4789 -0.2636,-0.70305 -1.11756,-1.14369 l -3.29606,-1.70075 0.49706,-0.9633 5.83189,3.00922 -0.49706,0.96331 -0.90602,-0.46751 q 0.34858,0.61503 0.36981,1.2128 0.0185,0.60298 -0.29582,1.2122 -0.51855,1.00496 -1.40939,1.19804 -0.88564,0.19577 -2.09367,-0.42757 z"
       style="font-size:12px;fill:none;stroke:#ff0000"
       id="path151" />
    <path
       d="m 206.67711,198.82884 -0.42726,-0.30908 2.90539,-4.01632 q -0.94322,-0.59555 -1.76826,-0.45474 -0.82373,0.149 -1.4522,1.01777 -0.36403,0.50323 -0.58059,1.06252 -0.21999,0.56403 -0.30969,1.20786 l -0.82605,-0.59756 q 0.1406,-0.61424 0.39332,-1.18352 0.25272,-0.56929 0.62019,-1.07726 0.92039,-1.27231 2.20017,-1.48191 1.27634,-0.20486 2.53916,0.70866 1.30554,0.94443 1.5616,2.19996 0.25738,1.26372 -0.60806,2.46007 -0.77614,1.07292 -1.91916,1.19343 -1.1417,0.12869 -2.32856,-0.72988 z m 0.88827,-0.68807 q 0.72373,0.50908 1.43604,0.42412 0.70888,-0.0802 1.17594,-0.72585 0.52888,-0.7311 0.43524,-1.4714 -0.0971,-0.73554 -0.79908,-1.34462 z"
       style="font-size:12px;fill:none;stroke:#ff0000"
       id="path153" />
    <path
       d="m 208.05121,204.55461 -1.36769,-1.2654 -1.50814,1.63004 -0.61503,-0.56903 1.50814,-1.63004 -2.61496,-2.41939 q -0.58922,-0.54516 -0.90419,-0.54122 -0.31895,0.008 -0.77656,0.50285 l -0.75208,0.81287 -0.66234,-0.6128 0.75208,-0.81287 q 0.84758,-0.9161 1.50967,-0.95011 0.6664,-0.03 1.56959,0.80561 l 2.61495,2.41939 0.5372,-0.58062 0.61503,0.56903 -0.5372,0.58062 1.36769,1.2654 z"
       style="font-size:12px;fill:none;stroke:#ff0000"
       id="path155" />
    <path
       d="m 204.14791,208.41682 -1.24354,-1.3876 -1.65378,1.48208 -0.5592,-0.62398 1.65378,-1.48208 -2.37758,-2.65302 q -0.53574,-0.5978 -0.8497,-0.62329 -0.31832,-0.0216 -0.82013,0.42813 l -0.8247,0.73908 -0.60222,-0.67198 0.82471,-0.73909 q 0.92943,-0.83293 1.5918,-0.80496 0.66628,0.0323 1.48749,0.94867 l 2.37758,2.65302 0.58907,-0.52792 0.5592,0.62398 -0.58907,0.52792 1.24354,1.3876 z"
       style="font-size:12px;fill:none;stroke:#ff0000"
       id="path157" />
    <path
       d="m 193.21017,210.65875 -0.30225,-0.43213 4.06204,-2.84113 q -0.69569,-0.87198 -1.52127,-1.00958 -0.82703,-0.12944 -1.70569,0.48513 -0.50896,0.35598 -0.89699,0.81329 -0.39283,0.46067 -0.68874,1.03946 l -0.58435,-0.83545 q 0.3343,-0.53414 0.75977,-0.98903 0.42547,-0.4549 0.93923,-0.81424 1.28679,-0.90002 2.56451,-0.67825 1.27293,0.22513 2.16624,1.50232 0.92353,1.32041 0.7536,2.59047 -0.17137,1.27823 -1.38134,2.12452 -1.08513,0.75898 -2.20444,0.4979 -1.12074,-0.25292 -1.96032,-1.45328 z m 1.06482,-0.35865 q 0.51671,0.7183 1.21747,0.8717 0.69597,0.15675 1.34897,-0.29998 0.73943,-0.51718 0.89379,-1.24723 0.14956,-0.72669 -0.31383,-1.53234 z"
       style="font-size:12px;fill:none;stroke:#ff0000"
       id="path159" />
  </g>
  <path
     d="M165.0,233.0 A68.0,68.0 0 0 0 178.26614189709673,231.69339906741968 L178.75386770213703,234.14536226842773 A70.5,70.5 0 0 1 165.0,235.5 z"
     fill="none"
     stroke="blue"
     stroke-width="0.2"
     id="path21" />
  <path
     d="M183.60908934287124,234.45006691018403 A71.9,71.9 0 0 0 196.8005568267462,229.48515011620032 L197.90627855229368,231.72733197003203 A74.4,74.4 0 0 1 184.25613695562754,236.86488147590669 z"
     fill="none"
     stroke="blue"
     stroke-width="0.2"
     id="path23" />
  <path
     d="M202.89999999999998,230.64472560686045 A75.8,75.8 0 0 0 214.9784127845852,221.98945740690647 L216.62677732233539,223.86905692560393 A78.3,78.3 0 0 1 204.14999999999998,232.80978911632155 z"
     fill="none"
     stroke="blue"
     stroke-width="0.2"
     id="path25" />
  <path
     d="M221.35641046056784,221.35641046056784 A79.7,79.7 0 0 0 231.26812810051285,209.27894757166231 L233.34680213126921,210.66787315421132 A82.2,82.2 0 0 1 223.1241774135342,223.1241774135342 z"
     fill="none"
     stroke="blue"
     stroke-width="0.2"
     id="path27" />
  <path
     d="M237.39972375637905,206.8 A83.6,83.6 0 0 0 244.16335882579082,191.8723392993443 L246.53068414952858,192.67593796260223 A86.1,86.1 0 0 1 239.56478726584015,208.05 z"
     fill="none"
     stroke="blue"
     stroke-width="0.2"
     id="path29" />
  <path
     d="M249.5185098002935,187.6466664464706 A87.5,87.5 0 0 0 252.3126557833778,170.72277380763754 L254.8073030914743,170.8862816307129 A90.0,90.0 0 0 1 251.93332436601614,188.2937140592269 z"
     fill="none"
     stroke="blue"
     stroke-width="0.2"
     id="path31" />
  <path
     d="M256.4,165.0 A91.4,91.4 0 0 0 254.64377462885528,147.1687445677259 L257.09573782986337,146.6810187626856 A93.9,93.9 0 0 1 258.9,165.0 z"
     fill="none"
     stroke="blue"
     stroke-width="0.2"
     id="path33" />
  <path
     d="M257.05273124534824,140.3345450017298 A95.3,95.3 0 0 0 250.4719722680652,122.84988782212919 L252.7141541218969,121.7441660965817 A97.8,97.8 0 0 1 259.46754581107086,139.6874973889735 z"
     fill="none"
     stroke="blue"
     stroke-width="0.2"
     id="path35" />
  <path
     d="M250.9097200554163,115.40000000000002 A99.2,99.2 0 0 0 239.5825089019146,99.5928951420732 L241.46210842061203,97.94453060432303 A101.7,101.7 0 0 1 253.0747835648774,114.15000000000002 z"
     fill="none"
     stroke="blue"
     stroke-width="0.2"
     id="path37" />
  <path
     d="M237.90270914033306,92.09729085966696 A103.1,103.1 0 0 0 222.27929102432103,79.27548297160762 L223.66821660687003,77.19680894085126 A105.6,105.6 0 0 1 239.6704760932994,90.32952390670059 z"
     fill="none"
     stroke="blue"
     stroke-width="0.2"
     id="path39" />
  <path
     d="M218.50000000000003,72.33528179506509 A107.0,107.0 0 0 0 199.3940227874383,63.678476144023705 L200.1976214506962,61.311150820285945 A109.5,109.5 0 0 1 219.75000000000003,70.17021828560398 z"
     fill="none"
     stroke="blue"
     stroke-width="0.2"
     id="path41" />
  <path
     d="M193.70303210186958,57.878825864542335 A110.9,110.9 0 0 0 172.25320703162294,54.337445412838875 L172.41671485469828,51.84279810474236 A113.4,113.4 0 0 1 194.35007971462588,55.464011298819656 z"
     fill="none"
     stroke="blue"
     stroke-width="0.2"
     id="path43" />
  <path
     d="M165.0,50.2 A114.8,114.8 0 0 0 142.60363103254852,52.40584980970914 L142.1159052275082,49.953886608701055 A117.3,117.3 0 0 1 165.00000000000003,47.7 z"
     fill="none"
     stroke="blue"
     stroke-width="0.2"
     id="path45" />
  <path
     d="M134.27817934633083,50.344604419487595 A118.69999999999999,118.69999999999999 0 0 0 112.50033247100458,58.5412055800699 L111.39461074545707,56.299023726238175 A121.19999999999999,121.19999999999999 0 0 1 133.63113173357453,47.929789853764916 z"
     fill="none"
     stroke="blue"
     stroke-width="0.2"
     id="path47" />
  <path
     d="M103.70000000000005,58.8252854960278 A122.6,122.6 0 0 0 84.16420306873161,72.82443960307734 L82.51583853098143,70.94484008437989 A125.1,125.1 0 0 1 102.45000000000005,56.66022198656671 z"
     fill="none"
     stroke="blue"
     stroke-width="0.2"
     id="path49" />
  <path
     d="M75.55099217990178,75.55099217990168 A126.5,126.5 0 0 0 59.819094043728086,94.72036552302022 L57.740420012971725,93.33143994047121 A129.0,129.0 0 0 1 73.78322522693541,73.78322522693531 z"
     fill="none"
     stroke="blue"
     stroke-width="0.2"
     id="path51" />
  <path
     d="M52.07028734650923,99.79999999999994 A130.4,130.4 0 0 0 41.52031111383823,123.0842937244677 L39.15298579010046,122.2806950612098 A132.9,132.9 0 0 1 49.90522383704814,98.54999999999994 z"
     fill="none"
     stroke="blue"
     stroke-width="0.2"
     id="path53" />
  <path
     d="M35.27616152937816,130.24060224273137 A134.3,134.3 0 0 0 30.987546609055528,156.21635974439172 L28.49289930095904,156.05285192131635 A136.8,136.8 0 0 1 32.86134696365548,129.59355462997505 z"
     fill="none"
     stroke="blue"
     stroke-width="0.2"
     id="path55" />
  <path
     d="M26.80000000000001,164.99999999999997 A138.2,138.2 0 0 0 29.455474248273532,191.9614825026288 L27.003511047265448,192.44920830766912 A140.7,140.7 0 0 1 24.30000000000001,164.99999999999997 z"
     fill="none"
     stroke="blue"
     stroke-width="0.2"
     id="path57" />
  <path
     d="M27.741940084323375,201.77818630906813 A142.1,142.1 0 0 0 37.55438342820497,227.84922288012004 L35.31220157437326,228.95494460566755 A144.6,144.6 0 0 1 25.327125518600724,202.42523392182443 z"
     fill="none"
     stroke="blue"
     stroke-width="0.2"
     id="path59" />
  <path
     d="M38.56029104747191,237.9999999999999 A146.0,146.0 0 0 0 55.23138810806924,261.26448900460997 L53.35178858937179,262.91285354236015 A148.5,148.5 0 0 1 36.3952275380108,239.2499999999999 z"
     fill="none"
     stroke="blue"
     stroke-width="0.2"
     id="path61" />
  <path
     d="M59.00469350013651,270.99530649986343 A149.89999999999998,149.89999999999998 0 0 0 81.72002207036152,289.63729488415146 L80.33109648781252,291.7159689149078 A152.39999999999998,152.39999999999998 0 0 1 57.23692654717014,272.7630734528298 z"
     fill="none"
     stroke="blue"
     stroke-width="0.2"
     id="path63" />
  <path
     d="M88.09999999999992,298.19470710204666 A153.8,153.8 0 0 0 115.5626102363737,310.63785391634724 L114.7590115731158,313.005179240085 A156.3,156.3 0 0 1 86.84999999999992,300.35977061150777 z"
     fill="none"
     stroke="blue"
     stroke-width="0.2"
     id="path65" />
  <path
     d="M124.18423658733235,317.32650280578605 A157.7,157.7 0 0 0 154.68592652040635,322.36235219472775 L154.52241869733098,324.85699950282424 A160.2,160.2 0 0 1 123.53718897457605,319.74131737150867 z"
     fill="none"
     stroke="blue"
     stroke-width="0.2"
     id="path67" />
</svg>
