<?xml version="1.0" encoding="UTF-8" standalone="no"?>
<svg
   height="330mm"
   version="1.1"
   viewBox="0 0 330 330"
   width="330mm"
   id="svg69"
   sodipodi:docname="AristonTestdisk.svg"
   inkscape:version="1.1.2 (0a00cf5339, 2022-02-04)"
   xmlns:inkscape="http://www.inkscape.org/namespaces/inkscape"
   xmlns:sodipodi="http://sodipodi.sourceforge.net/DTD/sodipodi-0.dtd"
   xmlns="http://www.w3.org/2000/svg"
   xmlns:svg="http://www.w3.org/2000/svg">
  <sodipodi:namedview
     id="namedview71"
     pagecolor="#ffffff"
     bordercolor="#666666"
     borderopacity="1.0"
     inkscape:pageshadow="2"
     inkscape:pageopacity="0.0"
     inkscape:pagecheckerboard="0"
     inkscape:document-units="mm"
     showgrid="false"
     inkscape:zoom="0.65263889"
     inkscape:cx="612.89636"
     inkscape:cy="624.38817"
     inkscape:window-width="1920"
     inkscape:window-height="1003"
     inkscape:window-x="0"
     inkscape:window-y="40"
     inkscape:window-maximized="1"
     inkscape:current-layer="svg69" />
  <defs
     id="defs2" />
  <circle
     cx="165"
     cy="165"
     fill="none"
     r="165"
     stroke="black"
     id="circle4" />
  <circle
     cx="165"
     cy="165"
     fill="none"
     r="5"
     stroke="blue"
     id="circle6" />
  <circle
     cx="201.5"
     cy="165"
     fill="none"
     r="3"
     stroke="blue"
     id="circle8" />
  <circle
     cx="165"
     cy="201.5"
     fill="none"
     r="3"
     stroke="blue"
     id="circle10" />
  <circle
     cx="128.5"
     cy="165"
     fill="none"
     r="3"
     stroke="blue"
     id="circle12" />
  <circle
     cx="165"
     cy="128.5"
     fill="none"
     r="3"
     stroke="blue"
     id="circle14" />
  <path
     d="M160,215 a55,55 0 1 1 0.1,0"
     fill="none"
     id="MyTextPath"
     stroke="none" />
  <g
     aria-label="https://github.com/chbergmann/midi2organette"
     id="text19">
    <path
       d="m 154.56045,217.95508 0.17558,-3.16388 0.86118,0.0478 -0.17402,3.1358 q -0.0413,0.74417 0.22836,1.13002 0.26966,0.38585 0.85001,0.41805 0.69737,0.0387 1.12455,-0.38359 0.42718,-0.42229 0.46978,-1.18986 l 0.16441,-2.96263 0.86585,0.048 -0.40415,7.28255 -0.86585,-0.0481 0.15844,-2.85498 q -0.33513,0.45556 -0.76467,0.66646 -0.43421,0.21064 -0.98181,0.18025 -0.90329,-0.0501 -1.33548,-0.63748 -0.43244,-0.58267 -0.37218,-1.6685 z"
       style="font-size:9.6px;fill:none;stroke:#ff0000"
       id="path73" />
    <path
       d="m 151.2132,221.11214 0.21469,-1.47508 -1.75804,-0.25587 0.0965,-0.66333 1.75804,0.25587 0.41047,-2.82028 q 0.0925,-0.6355 -0.0528,-0.84138 -0.14994,-0.20656 -0.68339,-0.2842 l -0.8767,-0.1276 0.10397,-0.71435 0.8767,0.1276 q 0.98803,0.1438 1.31043,0.56494 0.32171,0.42577 0.17994,1.39988 l -0.41047,2.82029 0.62621,0.0911 -0.0965,0.66332 -0.62621,-0.0911 -0.21469,1.47509 z"
       style="font-size:9.6px;fill:none;stroke:#ff0000"
       id="path75" />
    <path
       d="m 147.0529,220.36876 0.31542,-1.45687 -1.73633,-0.37593 0.14185,-0.65514 1.73633,0.37594 0.60308,-2.78547 q 0.13589,-0.62764 0.005,-0.84301 -0.13541,-0.21637 -0.66226,-0.33044 l -0.86588,-0.18747 0.15276,-0.70553 0.86587,0.18747 q 0.97583,0.21128 1.26856,0.65355 0.29174,0.44685 0.0834,1.40894 l -0.60308,2.78546 0.61848,0.13391 -0.14184,0.65513 -0.61849,-0.13391 -0.31542,1.45687 z"
       style="font-size:9.6px;fill:none;stroke:#ff0000"
       id="path77" />
    <path
       d="m 144.60682,213.6381 0.8321,-2.65714 0.82756,0.25916 -2.1657,6.9157 -0.82756,-0.25915 0.23815,-0.76046 q -0.39954,0.36608 -0.86043,0.45752 -0.46676,0.0945 -1.01698,-0.0778 -0.91255,-0.28578 -1.25372,-1.18836 -0.34564,-0.90398 0.0242,-2.08492 0.36982,-1.18095 1.16934,-1.72632 0.79504,-0.54676 1.70759,-0.26099 0.55022,0.1723 0.8811,0.51169 0.32501,0.34247 0.44437,0.87105 z m -3.348,0.87213 q -0.28437,0.90807 -0.0697,1.54017 0.20878,0.63517 0.86188,0.8397 0.6531,0.20452 1.19136,-0.19671 0.53238,-0.39816 0.81675,-1.30624 0.28437,-0.90808 0.0756,-1.54325 -0.21466,-0.63209 -0.86776,-0.83662 -0.6531,-0.20452 -1.18548,0.19364 -0.53825,0.40123 -0.82262,1.30931 z"
       style="font-size:9.6px;fill:none;stroke:#ff0000"
       id="path79" />
    <path
       d="m 134.77613,214.56492 0.32142,-0.74962 q 0.26215,0.31641 0.58709,0.55775 0.32494,0.24133 0.71268,0.40758 0.59022,0.25308 0.96506,0.19959 0.37054,-0.0553 0.52571,-0.41721 0.11823,-0.27573 -0.0245,-0.52564 -0.1446,-0.24561 -0.72125,-0.66118 l -0.24556,-0.17669 q -0.76681,-0.543 -0.97784,-1.02621 -0.21719,-0.48074 0.0359,-1.07096 0.28818,-0.67207 0.99049,-0.83506 0.698,-0.16483 1.62857,0.23418 0.38773,0.16625 0.77668,0.42483 0.38649,0.25242 0.78712,0.60271 l -0.35098,0.81856 q -0.34153,-0.41676 -0.71816,-0.71596 -0.37848,-0.29489 -0.79637,-0.47407 -0.56006,-0.24014 -0.94291,-0.17989 -0.3847,0.0646 -0.53433,0.41352 -0.13854,0.32311 0.007,0.58965 0.14152,0.26469 0.80987,0.73997 l 0.24801,0.18285 q 0.6702,0.47097 0.86092,0.93017 0.18888,0.4635 -0.0513,1.02356 -0.29187,0.68069 -0.93325,0.8443 -0.64138,0.16361 -1.52886,-0.21692 -0.43943,-0.18842 -0.79946,-0.4193 -0.36003,-0.23087 -0.63203,-0.50051 z"
       style="font-size:9.6px;fill:none;stroke:#ff0000"
       id="path81" />
    <path
       d="m 134.55949,210.09156 -0.87717,-0.45698 0.55011,-1.05592 0.87716,0.45698 z m -1.74345,3.34652 -0.87716,-0.45697 0.55011,-1.05593 0.87716,0.45698 z"
       style="font-size:9.6px;fill:none;stroke:#ff0000"
       id="path83" />
    <path
       d="m 127.55312,212.81458 -0.68382,-0.40915 6.14223,-5.51831 0.68382,0.40914 z"
       style="font-size:9.6px;fill:none;stroke:#ff0000"
       id="path85" />
    <path
       d="m 124.50754,210.81137 -0.65862,-0.44859 6.45564,-5.14815 0.65861,0.44859 z"
       style="font-size:9.6px;fill:none;stroke:#ff0000"
       id="path87" />
    <path
       d="m 122.67335,203.96035 q -0.59125,0.72755 -0.61451,1.37307 -0.0269,0.64257 0.51514,1.08305 0.53838,0.43752 1.16551,0.28274 0.62348,-0.15774 1.21473,-0.88529 0.58829,-0.72392 0.61518,-1.36648 0.0233,-0.64552 -0.51513,-1.08305 -0.54202,-0.44048 -1.16551,-0.28274 -0.62712,0.15479 -1.21541,0.8787 z m 0.61366,-2.12274 q 0.84549,-1.04039 1.71841,-1.1706 0.87586,-0.13384 1.82896,0.6407 0.35286,0.28675 0.62136,0.59556 0.27146,0.30516 0.47743,0.65375 l -0.52917,0.65116 q -0.16458,-0.39952 -0.38988,-0.70945 -0.2253,-0.30994 -0.5236,-0.55235 -0.65843,-0.53508 -1.26667,-0.45556 -0.60529,0.0759 -1.16993,0.7707 l -0.26902,0.33103 q 0.50002,-0.19163 0.96864,-0.10677 0.46861,0.0848 0.91969,0.45143 0.74938,0.60899 0.7436,1.5526 -0.006,0.94362 -0.77144,1.88579 -0.76862,0.94582 -1.69111,1.14446 -0.92249,0.19864 -1.67187,-0.41035 -0.45108,-0.36657 -0.62998,-0.80793 -0.17891,-0.44136 -0.0936,-0.97 l -0.50256,0.61842 -0.66935,-0.54395 z"
       style="font-size:9.6px;fill:none;stroke:#ff0000"
       id="path89" />
    <path
       d="m 118.78675,203.90488 -0.62422,-0.5952 3.62296,-3.79956 0.62422,0.5952 z m -1.41037,1.47911 -0.62421,-0.5952 0.7537,-0.79044 0.62422,0.5952 z"
       style="font-size:9.6px;fill:none;stroke:#ff0000"
       id="path91" />
    <path
       d="m 114.99552,202.21473 1.08957,-1.01725 -1.21238,-1.29857 0.48996,-0.45745 1.21239,1.29858 2.0832,-1.94493 q 0.46941,-0.43825 0.48467,-0.68978 0.0121,-0.25496 -0.3558,-0.64899 l -0.60459,-0.64757 0.52765,-0.49264 0.60459,0.64758 q 0.68137,0.72981 0.6698,1.26005 -0.015,0.53345 -0.73452,1.20522 l -2.08321,1.94493 0.43186,0.46255 -0.48997,0.45744 -0.43185,-0.46255 -1.08957,1.01725 z"
       style="font-size:9.6px;fill:none;stroke:#ff0000"
       id="path93" />
    <path
       d="m 112.77383,193.97153 2.49935,-1.94788 0.53019,0.68029 -2.47716,1.93059 q -0.58787,0.45816 -0.7013,0.91502 -0.11343,0.45687 0.24387,0.91533 0.42934,0.55089 1.02839,0.59512 0.59905,0.0442 1.2054,-0.42834 l 2.34036,-1.82398 0.53308,0.684 -5.75294,4.48358 -0.53307,-0.684 2.25533,-1.7577 q -0.56361,0.047 -1.00492,-0.13797 -0.4442,-0.18868 -0.78133,-0.62126 -0.55612,-0.71357 -0.39772,-1.42538 0.15471,-0.70892 1.01247,-1.37742 z"
       style="font-size:9.6px;fill:none;stroke:#ff0000"
       id="path95" />
    <path
       d="m 112.57598,191.76667 -2.70668,1.66564 -0.45204,-0.73456 2.67874,-1.64844 q 0.63475,-0.39062 0.80181,-0.83467 0.16306,-0.44159 -0.14157,-0.93662 -0.36604,-0.59483 -0.95658,-0.70477 -0.59298,-0.11393 -1.2477,0.28897 l -2.53501,1.56001 -0.45204,-0.73456 4.47122,-2.7515 0.45203,0.73455 -0.68665,0.42256 q 0.5718,0.0169 0.99005,0.24935 0.41181,0.23094 0.69924,0.69802 0.47414,0.77048 0.24075,1.4645 -0.23339,0.69402 -1.15557,1.26152 z"
       style="font-size:9.6px;fill:none;stroke:#ff0000"
       id="path97" />
    <path
       d="m 107.21219,183.07915 q -0.86066,0.40588 -1.18027,0.99195 -0.32585,0.58383 -0.0339,1.20282 0.29192,0.619 0.95167,0.7432 0.65352,0.12196 1.51418,-0.28392 0.86065,-0.40588 1.18651,-0.98971 0.31961,-0.58607 0.0277,-1.20506 -0.29191,-0.619 -0.94543,-0.74096 -0.65975,-0.1242 -1.52041,0.28168 z m -0.40608,3.43582 q -0.53994,-0.046 -0.91939,-0.32308 -0.38569,-0.27936 -0.63162,-0.80084 -0.40789,-0.8649 0.025,-1.72724 0.4309,-0.86659 1.55018,-1.39444 1.11928,-0.52785 2.06203,-0.30907 0.94076,0.21453 1.34864,1.07943 0.24593,0.52148 0.22037,0.99479 -0.0318,0.47106 -0.33979,0.9169 l 0.71226,-0.3359 0.3699,0.78434 -6.59696,3.1111 -0.36989,-0.78434 z"
       style="font-size:9.6px;fill:none;stroke:#ff0000"
       id="path99" />
    <path
       d="m 107.55949,180.104 -0.34564,-0.9267 1.11555,-0.41609 0.34565,0.9267 z"
       style="font-size:9.6px;fill:none;stroke:#ff0000"
       id="path101" />
    <path
       d="m 101.77839,174.70072 0.77471,-0.22332 q -0.0924,0.40715 -0.0844,0.79024 0.002,0.37988 0.10605,0.74021 0.2324,0.80624 0.87441,1.10413 0.6375,0.29919 1.56084,0.033 0.92334,-0.26616 1.30827,-0.86008 0.38043,-0.59262 0.14802,-1.39886 -0.10387,-0.36033 -0.29972,-0.68438 -0.20166,-0.32726 -0.49661,-0.62275 l 0.76569,-0.22072 q 0.26213,0.30007 0.45096,0.65054 0.18754,0.34597 0.30829,0.76485 0.32848,1.13954 -0.19421,2.01709 -0.5227,0.87755 -1.73881,1.2281 -1.23412,0.35575 -2.13602,-0.11602 -0.9032,-0.47628 -1.24336,-1.65635 -0.11036,-0.38285 -0.13446,-0.77105 -0.0286,-0.38691 0.0304,-0.77466 z"
       style="font-size:9.6px;fill:none;stroke:#ff0000"
       id="path103" />
    <path
       d="m 101.35528,170.66182 q 0.12323,0.68272 0.72994,0.98285 0.6021,0.30096 1.5293,0.1336 0.92721,-0.16736 1.39154,-0.65605 0.45888,-0.49247 0.33482,-1.1798 -0.1224,-0.6781 -0.72911,-0.97823 -0.60671,-0.30013 -1.5293,-0.1336 -0.91798,0.16569 -1.38148,0.65899 -0.46811,0.49414 -0.34571,1.17224 z m -0.71962,0.12989 q -0.19983,-1.10711 0.40572,-1.86897 0.60555,-0.76187 1.87872,-0.99168 1.26857,-0.22897 2.10687,0.27228 0.8337,0.50208 1.03353,1.60919 0.20066,1.11173 -0.40489,1.87359 -0.61099,0.75809 -1.87956,0.98706 -1.27317,0.22981 -2.10603,-0.26766 -0.8337,-0.50209 -1.03436,-1.61381 z"
       style="font-size:9.6px;fill:none;stroke:#ff0000"
       id="path105" />
    <path
       d="m 100.84582,162.13414 q -0.59391,-0.29956 -0.888522,-0.73795 -0.294614,-0.4384 -0.319369,-1.04727 -0.03332,-0.81963 0.524671,-1.288 0.55331,-0.46818 1.61181,-0.51121 l 3.16614,-0.12873 0.0352,0.86647 -3.13804,0.12759 q -0.75406,0.0307 -1.10853,0.31248 -0.35447,0.28182 -0.33219,0.8298 0.0272,0.66976 0.48798,1.04041 0.46075,0.37065 1.22887,0.33942 l 2.96474,-0.12053 0.0352,0.86647 -3.13803,0.12758 q -0.75875,0.0309 -1.10853,0.31248 -0.35447,0.28182 -0.33181,0.83917 0.0268,0.66039 0.49228,1.03085 0.46075,0.37065 1.22418,0.33962 l 2.96474,-0.12054 0.0352,0.86647 -5.24567,0.21327 -0.03522,-0.86647 0.814955,-0.0331 q -0.49441,-0.27546 -0.74067,-0.67829 -0.246254,-0.40283 -0.269295,-0.96955 -0.02323,-0.5714 0.250965,-0.98131 0.27401,-0.4146 0.81887,-0.6291 z"
       style="font-size:9.6px;fill:none;stroke:#ff0000"
       id="path107" />
    <path
       d="m 98.276341,154.66446 0.05762,-0.79479 7.692157,3.00158 -0.0576,0.79479 z"
       style="font-size:9.6px;fill:none;stroke:#ff0000"
       id="path109" />
    <path
       d="m 100.98099,148.98599 0.79723,0.12022 q -0.25383,0.33149 -0.40639,0.68298 -0.15649,0.34616 -0.21241,0.71696 -0.12512,0.82969 0.33408,1.36825 0.45456,0.53786 1.40476,0.68115 0.95019,0.14329 1.54779,-0.23589 0.59297,-0.37989 0.71809,-1.20957 0.0559,-0.37081 0.0131,-0.74702 -0.0468,-0.38155 -0.19153,-0.77315 l 0.78796,0.11883 q 0.11304,0.38207 0.13846,0.77936 0.0261,0.39266 -0.0389,0.82372 -0.17684,1.17268 -1.01797,1.75217 -0.84113,0.57949 -2.09261,0.39076 -1.27001,-0.19153 -1.89287,-0.99653 -0.62216,-0.80964 -0.43903,-2.02404 0.0594,-0.39398 0.19947,-0.75684 0.13542,-0.36356 0.35077,-0.69136 z"
       style="font-size:9.6px;fill:none;stroke:#ff0000"
       id="path111" />
    <path
       d="m 104.29662,143.24555 3.06736,0.79517 -0.21644,0.83491 -3.04013,-0.78812 q -0.72147,-0.18703 -1.15286,0.001 -0.43139,0.1884 -0.57725,0.75105 -0.17527,0.67609 0.15463,1.17806 0.3299,0.50197 1.07406,0.69488 l 2.87224,0.7446 -0.21762,0.83944 -7.06036,-1.83031 0.217614,-0.83944 2.767886,0.71753 q -0.38066,-0.41828 -0.50284,-0.88093 -0.12101,-0.46719 0.0166,-0.99808 0.22703,-0.87574 0.88798,-1.1838 0.65642,-0.30923 1.70912,-0.0363 z"
       style="font-size:9.6px;fill:none;stroke:#ff0000"
       id="path113" />
    <path
       d="m 106.79294,137.94386 q -0.88874,-0.34002 -1.53291,-0.16488 -0.64687,0.16908 -0.89141,0.80828 -0.24455,0.63919 0.12261,1.20124 0.36445,0.55599 1.2532,0.89601 0.88874,0.34001 1.53561,0.17093 0.64417,-0.17514 0.88871,-0.81433 0.24455,-0.63919 -0.11991,-1.19519 -0.36715,-0.56205 -1.2559,-0.90206 z m -2.76033,2.08574 q -0.34065,-0.42142 -0.4034,-0.88708 -0.0655,-0.47172 0.14056,-1.01022 0.34169,-0.89312 1.26365,-1.17779 0.92364,-0.28904 2.07944,0.15314 1.1558,0.44219 1.65065,1.27392 0.49652,0.82735 0.15483,1.72047 -0.20602,0.5385 -0.56523,0.84775 -0.36192,0.30319 -0.89687,0.38962 l 0.73551,0.28139 -0.30987,0.80994 -6.81222,-2.60622 0.30986,-0.80993 z"
       style="font-size:9.6px;fill:none;stroke:#ff0000"
       id="path115" />
    <path
       d="m 109.69822,131.45317 0.37512,0.19304 -1.81459,3.52611 q 0.81766,0.35752 1.45323,0.14687 0.63356,-0.21695 1.02608,-0.9797 0.22735,-0.4418 0.33133,-0.9102 0.10612,-0.47256 0.0996,-0.99256 l 0.72523,0.37321 q -0.0373,0.50272 -0.16867,0.98338 -0.13137,0.48065 -0.36087,0.92663 -0.57484,1.11702 -1.56179,1.43678 -0.98481,0.3156 -2.09349,-0.25494 -1.1462,-0.58985 -1.4998,-1.55204 -0.35562,-0.9685 0.18489,-2.01883 0.48475,-0.94196 1.37426,-1.17481 0.88748,-0.23917 1.92948,0.29706 z m -0.61973,0.65108 q -0.63366,-0.31554 -1.1868,-0.16264 -0.551,0.14873 -0.84271,0.71558 -0.33032,0.64187 -0.16718,1.2161 0.16529,0.57006 0.7938,0.9673 z"
       style="font-size:9.6px;fill:none;stroke:#ff0000"
       id="path117" />
    <path
       d="m 110.85551,126.60685 q -0.14901,0.0777 -0.27346,0.20413 -0.12591,0.12002 -0.23623,0.29429 -0.39112,0.61786 -0.19774,1.20628 0.19192,0.58196 0.94444,1.05833 l 2.33678,1.47925 -0.46384,0.73272 -4.4359,-2.80807 0.46383,-0.73272 0.68915,0.43626 q -0.25857,-0.48545 -0.21947,-0.97664 0.0351,-0.4937 0.3686,-1.02047 0.0476,-0.0752 0.11718,-0.15882 0.0656,-0.0861 0.1556,-0.18444 z"
       style="font-size:9.6px;fill:none;stroke:#ff0000"
       id="path119" />
    <path
       d="m 114.99673,123.99793 q -0.74405,-0.57034 -1.38997,-0.57525 -0.64307,-0.009 -1.06798,0.54569 -0.42206,0.5506 -0.24952,1.17307 0.17539,0.61875 0.91944,1.1891 0.74033,0.56749 1.3834,0.57612 0.64592,0.005 1.06798,-0.54569 0.4249,-0.55432 0.24952,-1.17307 -0.17254,-0.62247 -0.91287,-1.18997 z m 2.13931,0.55312 q 1.06399,0.8156 1.21894,1.68446 0.15867,0.87171 -0.58848,1.84642 -0.27662,0.36087 -0.57767,0.63803 -0.29734,0.28002 -0.63993,0.49581 l -0.66593,-0.51046 q 0.39468,-0.17586 0.69809,-0.40988 0.30341,-0.23401 0.53726,-0.53907 0.51616,-0.67337 0.41939,-1.27911 -0.0931,-0.60288 -0.80362,-1.14756 l -0.33854,-0.25951 q 0.20575,0.49438 0.13424,0.96521 -0.0715,0.47084 -0.42512,0.93215 -0.58746,0.76638 -1.53085,0.78741 -0.9434,0.021 -1.90695,-0.71757 -0.96727,-0.74144 -1.19203,-1.65792 -0.22476,-0.91647 0.36269,-1.68284 0.35362,-0.46132 0.78971,-0.65268 0.4361,-0.19137 0.96695,-0.12111 l -0.63244,-0.48479 0.52471,-0.68453 z"
       style="font-size:9.6px;fill:none;stroke:#ff0000"
       id="path121" />
    <path
       d="m 118.68529,117.64409 q -0.1774,-0.64108 -0.0508,-1.15389 0.12657,-0.5128 0.56075,-0.94039 0.58447,-0.57559 1.30631,-0.47726 0.71855,0.095 1.46189,0.8498 l 2.22344,2.25772 -0.61787,0.60849 -2.2037,-2.23769 q -0.52955,-0.53771 -0.97647,-0.61074 -0.44692,-0.073 -0.83768,0.3118 -0.47759,0.47034 -0.44233,1.06062 0.0353,0.59028 0.57467,1.13801 l 2.082,2.11411 -0.61787,0.60849 -2.2037,-2.23769 q -0.53283,-0.54105 -0.97646,-0.61074 -0.44692,-0.073 -0.84436,0.31838 -0.47092,0.46376 -0.43237,1.05738 0.0353,0.59028 0.57138,1.13467 l 2.08201,2.11411 -0.61787,0.60849 -3.6838,-3.74061 0.61787,-0.60848 0.5723,0.58113 q -0.12836,-0.55122 0.004,-1.00431 0.13274,-0.45309 0.53686,-0.85107 0.40746,-0.40128 0.89527,-0.47378 0.49115,-0.0758 1.0162,0.18345 z"
       style="font-size:9.6px;fill:none;stroke:#ff0000"
       id="path123" />
    <path
       d="m 125.91859,113.60861 q -0.83851,0.62416 -1.01914,1.05663 -0.18062,0.43248 0.16364,0.89498 0.2743,0.36849 0.67728,0.40745 0.40395,0.0324 0.82133,-0.27828 0.5753,-0.42824 0.61895,-1.09183 0.0446,-0.67016 -0.45919,-1.34698 l -0.11476,-0.15417 z m 1.16726,-1.31297 1.78851,2.40273 -0.69187,0.515 -0.47581,-0.63922 q 0.0486,0.55987 -0.16771,1.00721 -0.21911,0.44359 -0.73049,0.82424 -0.64674,0.48141 -1.29897,0.40593 -0.65127,-0.0821 -1.1047,-0.69119 -0.52899,-0.71067 -0.32391,-1.42431 0.20884,-0.71643 1.15264,-1.41896 l 0.97012,-0.72212 -0.0504,-0.0677 q -0.35546,-0.47754 -0.86444,-0.50189 -0.50802,-0.0309 -1.0758,0.39174 -0.36098,0.2687 -0.63877,0.60988 -0.2778,0.34119 -0.46491,0.74926 l -0.47581,-0.63922 q 0.27062,-0.42934 0.57465,-0.76668 0.30124,-0.3411 0.63965,-0.593 0.91372,-0.68014 1.7176,-0.54223 0.80388,0.13791 1.5204,1.10051 z"
       style="font-size:9.6px;fill:none;stroke:#ff0000"
       id="path125" />
    <path
       d="m 132.51277,108.76848 1.6053,2.73203 -0.74363,0.43695 -1.59105,-2.70778 q -0.37758,-0.64259 -0.81575,-0.81464 -0.43818,-0.17204 -0.93932,0.12242 -0.60218,0.35384 -0.72414,0.942 -0.12197,0.58816 0.26748,1.25096 l 1.50319,2.55825 -0.74767,0.43932 -2.65967,-4.52644 0.74767,-0.43932 0.4132,0.70322 q 0.0269,-0.56492 0.26784,-0.97835 0.245,-0.41579 0.71785,-0.69363 0.78,-0.45832 1.46507,-0.20844 0.68269,0.24583 1.23363,1.18345 z"
       style="font-size:9.6px;fill:none;stroke:#ff0000"
       id="path127" />
    <path
       d="m 138.34388,106.04133 1.29298,2.89295 -0.78743,0.35194 -1.2815,-2.86728 q -0.30412,-0.68045 -0.72055,-0.89994 -0.41643,-0.2195 -0.94709,0.0177 -0.63765,0.28499 -0.82399,0.85604 -0.18633,0.57104 0.12735,1.27288 l 1.21073,2.70894 -0.79171,0.35385 -2.14221,-4.79307 0.79171,-0.35384 0.33281,0.74463 q 0.0893,-0.55846 0.37451,-0.94267 0.28952,-0.38612 0.79023,-0.6099 0.82594,-0.36915 1.47914,-0.045 0.65128,0.31991 1.09502,1.31276 z"
       style="font-size:9.6px;fill:none;stroke:#ff0000"
       id="path129" />
    <path
       d="m 140.40693,101.24598 0.75256,-0.26205 0.29241,8.25186 -0.75255,0.26205 z"
       style="font-size:9.6px;fill:none;stroke:#ff0000"
       id="path131" />
    <path
       d="m 147.36568,102.19298 q 0.18881,-0.63782 0.56761,-1.00591 0.37881,-0.36809 0.9735,-0.50106 0.80055,-0.179 1.36094,0.2865 0.55937,0.46092 0.79053,1.49477 l 0.69145,3.09239 -0.84629,0.18922 -0.68531,-3.06494 q -0.16468,-0.7365 -0.50521,-1.03501 -0.34053,-0.29852 -0.87575,-0.17884 -0.65416,0.14626 -0.93668,0.66574 -0.28252,0.51948 -0.11477,1.26971 l 0.64746,2.89568 -0.84629,0.18923 -0.68531,-3.06495 q -0.1657,-0.74107 -0.5052,-1.03501 -0.34054,-0.29851 -0.88491,-0.17679 -0.64501,0.14422 -0.9265,0.66827 -0.28252,0.51948 -0.11579,1.26513 l 0.64746,2.89569 -0.84629,0.18922 -1.14559,-5.12349 0.84629,-0.18922 0.17798,0.79597 q 0.18284,-0.53562 0.53528,-0.84978 0.35244,-0.31417 0.90596,-0.43793 0.55809,-0.12479 1.01035,0.0719 0.45682,0.19566 0.76508,0.69352 z"
       style="font-size:9.6px;fill:none;stroke:#ff0000"
       id="path133" />
    <path
       d="m 152.90191,100.24396 0.85724,-0.0951 0.57907,5.21796 -0.85723,0.0951 z m -0.22542,-2.031279 0.85723,-0.09513 0.12047,1.085524 -0.85724,0.09513 z"
       style="font-size:9.6px;fill:none;stroke:#ff0000"
       id="path135" />
    <path
       d="m 159.44612,100.61146 -0.0901,-2.839193 0.86207,-0.02736 0.23134,7.29008 -0.86207,0.0274 -0.025,-0.78711 q -0.25687,0.47714 -0.66656,0.71994 -0.40516,0.23797 -0.98611,0.25641 -0.95109,0.0302 -1.57487,-0.70978 -0.6191,-0.74011 -0.65835,-1.97699 -0.0393,-1.23688 0.53168,-2.01475 0.57561,-0.778025 1.52669,-0.808206 0.58096,-0.01844 1.00054,0.198053 0.42411,0.211653 0.71072,0.671543 z m -2.87945,1.92511 q 0.0302,0.95109 0.43629,1.48222 0.41065,0.5263 1.09468,0.5046 0.68403,-0.0217 1.06049,-0.57299 0.3763,-0.55596 0.34612,-1.50705 -0.0302,-0.95108 -0.44083,-1.47738 -0.4108,-0.53099 -1.09483,-0.50928 -0.68403,0.0217 -1.06033,0.57767 -0.37177,0.55113 -0.34159,1.50221 z"
       style="font-size:9.6px;fill:none;stroke:#ff0000"
       id="path137" />
    <path
       d="m 162.47106,99.87219 0.86157,0.04013 -0.24428,5.244319 -0.86157,-0.0401 z m 0.0951,-2.041537 0.86156,0.04013 -0.0508,1.091005 -0.86156,-0.04013 z"
       style="font-size:9.6px;fill:none;stroke:#ff0000"
       id="path139" />
    <path
       d="m 165.92302,104.57082 3.27858,0.41453 -0.1,0.79058 -4.40865,-0.55741 0.1,-0.79058 q 0.60478,-0.48579 1.64317,-1.29946 1.04363,-0.81774 1.31491,-1.05748 0.51519,-0.44986 0.73601,-0.77631 0.22605,-0.3305 0.26898,-0.66999 0.07,-0.5534 -0.27657,-0.951579 -0.34189,-0.39759 -0.96506,-0.476381 -0.44179,-0.05586 -0.95415,0.03528 -0.5077,0.09173 -1.10515,0.332749 l 0.11995,-0.948697 q 0.59617,-0.156138 1.10382,-0.210072 0.50765,-0.05393 0.91689,-0.0022 1.07891,0.136414 1.65247,0.757012 0.57356,0.620599 0.45949,1.52279 -0.0541,0.42784 -0.26567,0.79325 -0.20633,0.36135 -0.69538,0.8287 -0.13331,0.12016 -0.83821,0.68779 -0.70431,0.56297 -1.98543,1.57747 z"
       style="font-size:9.6px;fill:none;stroke:#ff0000"
       id="path141" />
    <path
       d="m 173.99957,102.06962 q -0.6747,-0.16148 -1.19332,0.2735 -0.51753,0.43042 -0.73684,1.34672 -0.21931,0.91631 0.0416,1.53787 0.26657,0.61809 0.94582,0.78066 0.67014,0.1604 1.18876,-0.27458 0.51862,-0.43498 0.73684,-1.34673 0.21713,-0.90719 -0.0483,-1.52984 -0.2644,-0.62721 -0.93453,-0.7876 z m 0.17021,-0.71117 q 1.0941,0.26187 1.54843,1.12251 0.45434,0.86065 0.1532,2.11886 -0.30006,1.25366 -1.09591,1.8199 -0.79476,0.56168 -1.88886,0.29982 -1.09865,-0.26296 -1.55299,-1.1236 -0.44869,-0.86412 -0.14863,-2.11777 0.30114,-1.25821 1.09134,-1.82099 0.79476,-0.56168 1.89342,-0.29873 z"
       style="font-size:9.6px;fill:none;stroke:#ff0000"
       id="path143" />
    <path
       d="m 180.91902,104.35822 q -0.11089,-0.12625 -0.26336,-0.21702 -0.14654,-0.0937 -0.34206,-0.15938 -0.6932,-0.2328 -1.21868,0.0951 -0.51954,0.32494 -0.80309,1.16922 l -0.88048,2.62172 -0.82207,-0.27608 1.67143,-4.97683 0.82206,0.27608 -0.25967,0.77319 q 0.40995,-0.36669 0.89633,-0.44564 0.48787,-0.0834 1.07887,0.11509 0.0844,0.0284 0.18216,0.076 0.0992,0.0432 0.21617,0.10721 z"
       style="font-size:9.6px;fill:none;stroke:#ff0000"
       id="path145" />
    <path
       d="m 184.43945,107.76222 q 0.37739,-0.85819 0.2288,-1.4868 -0.14429,-0.62674 -0.78364,-0.90789 -0.63506,-0.27927 -1.19877,0.0361 -0.55942,0.31727 -0.93681,1.17546 -0.3755,0.85389 -0.23121,1.48062 0.14859,0.62862 0.78364,0.90789 0.63935,0.28116 1.19877,-0.0361 0.56371,-0.31538 0.93922,-1.16928 z m -0.0294,2.20946 q -0.53966,1.22721 -1.3469,1.58401 -0.80912,0.36109 -1.93334,-0.13329 -0.41622,-0.18304 -0.75694,-0.40968 -0.3426,-0.22235 -0.63356,-0.50392 l 0.33777,-0.76808 q 0.26454,0.34165 0.56389,0.58082 0.29936,0.23918 0.65122,0.39391 0.77666,0.34154 1.3421,0.10373 0.56356,-0.23353 0.92396,-1.05309 l 0.17172,-0.39048 q -0.4314,0.31725 -0.90575,0.35956 -0.47435,0.0423 -1.00643,-0.19166 -0.88393,-0.38871 -1.12834,-1.30014 -0.2444,-0.91143 0.24432,-2.02278 0.4906,-1.11565 1.32751,-1.55157 0.83691,-0.43592 1.72084,-0.0472 0.53208,0.23398 0.82151,0.61218 0.28943,0.37819 0.34721,0.91055 l 0.32078,-0.72946 0.78953,0.3472 z"
       style="font-size:9.6px;fill:none;stroke:#ff0000"
       id="path147" />
    <path
       d="m 189.11814,110.28135 q -0.90572,-0.52189 -1.37436,-0.51601 -0.46864,0.006 -0.7565,0.50543 -0.22935,0.39803 -0.10515,0.78337 0.1306,0.38363 0.58143,0.6434 0.62141,0.35806 1.24781,0.13473 0.63281,-0.22506 1.05407,-0.95613 l 0.0959,-0.16652 z m 1.66842,0.55021 -1.49544,2.59529 -0.74731,-0.43061 0.39785,-0.69045 q -0.49459,0.26683 -0.99104,0.24586 -0.49412,-0.025 -1.04648,-0.34332 -0.69858,-0.40253 -0.88818,-1.03114 -0.1832,-0.63033 0.19592,-1.28829 0.44232,-0.76763 1.17873,-0.86265 0.74048,-0.0927 1.75991,0.49472 l 1.04787,0.6038 0.0421,-0.0731 q 0.29722,-0.51581 0.11754,-0.99264 -0.17329,-0.47855 -0.78657,-0.83193 -0.38991,-0.22467 -0.81333,-0.34422 -0.42342,-0.11955 -0.87224,-0.12931 l 0.39785,-0.69045 q 0.50148,0.078 0.93179,0.22313 0.43265,0.1411 0.79818,0.35172 0.98694,0.56869 1.17945,1.36128 0.1925,0.79258 -0.40662,1.83232 z"
       style="font-size:9.6px;fill:none;stroke:#ff0000"
       id="path149" />
    <path
       d="m 196.17769,114.41336 -1.87048,2.55779 -0.6962,-0.50912 1.85388,-2.53509 q 0.43995,-0.60161 0.42395,-1.07208 -0.016,-0.47046 -0.48518,-0.81357 -0.56377,-0.41228 -1.15203,-0.29079 -0.58827,0.1215 -1.04205,0.74202 l -1.7515,2.39509 -0.69999,-0.51189 3.09902,-4.23775 0.69999,0.51189 -0.48146,0.65836 q 0.52919,-0.19953 1.00429,-0.14245 0.47889,0.0598 0.92158,0.38358 0.73026,0.53402 0.77281,1.262 0.0453,0.72419 -0.59663,1.60201 z"
       style="font-size:9.6px;fill:none;stroke:#ff0000"
       id="path151" />
    <path
       d="m 200.86671,119.00027 -0.28446,0.31155 -2.92859,-2.67386 q -0.55897,0.69565 -0.52194,1.3642 0.0437,0.66825 0.67715,1.24663 0.36694,0.33503 0.79182,0.55792 0.42835,0.22606 0.93194,0.35579 l -0.54994,0.60233 q -0.47545,-0.16751 -0.905,-0.42005 -0.42955,-0.25254 -0.79995,-0.59073 -0.92774,-0.84704 -0.97817,-1.88327 -0.047,-1.03308 0.79375,-1.95389 0.86916,-0.95197 1.89034,-1.04153 1.02781,-0.0899 1.90016,0.7066 0.78234,0.7143 0.77438,1.63374 -0.001,0.91914 -0.79149,1.78457 z m -0.46628,-0.76848 q 0.47032,-0.52904 0.46746,-1.10292 5.9e-4,-0.57072 -0.4702,-1.00056 -0.5331,-0.48673 -1.13001,-0.4795 -0.59345,0.0104 -1.14128,0.51309 z"
       style="font-size:9.6px;fill:none;stroke:#ff0000"
       id="path153" />
    <path
       d="m 205.44989,118.21009 -1.09739,1.00882 1.20234,1.30789 -0.49348,0.45365 -1.20233,-1.30789 -2.09814,1.92882 q -0.47277,0.43461 -0.48998,0.68602 -0.014,0.25486 0.35079,0.65171 l 0.59958,0.65222 -0.53143,0.48854 -0.59958,-0.65221 q -0.67572,-0.73504 -0.66007,-1.26518 0.0191,-0.53332 0.7438,-1.19952 l 2.09814,-1.92881 -0.42828,-0.46587 0.49348,-0.45365 0.42827,0.46587 1.09738,-1.00882 z"
       style="font-size:9.6px;fill:none;stroke:#ff0000"
       id="path155" />
    <path
       d="m 208.20655,121.40877 -1.16353,0.93175 1.11048,1.38673 -0.52322,0.41899 -1.11048,-1.38673 -2.22462,1.78146 q -0.50127,0.40141 -0.53556,0.65106 -0.0314,0.25331 0.3056,0.67408 l 0.55377,0.69154 -0.56347,0.45122 -0.55377,-0.69153 q -0.6241,-0.77935 -0.57238,-1.30719 0.0554,-0.53078 0.82376,-1.14608 l 2.22461,-1.78146 -0.39555,-0.49395 0.52322,-0.41899 0.39556,0.49395 1.16353,-0.93175 z"
       style="font-size:9.6px;fill:none;stroke:#ff0000"
       id="path157" />
    <path
       d="m 209.59374,130.07921 -0.35115,0.23383 -2.19794,-3.3008 q -0.71014,0.54045 -0.8353,1.19822 -0.11867,0.65908 0.35677,1.37308 0.2754,0.41357 0.63404,0.73229 0.36125,0.32261 0.81874,0.56988 l -0.67888,0.45205 q -0.42108,-0.27714 -0.77711,-0.62576 -0.35603,-0.34861 -0.63402,-0.76609 -0.69628,-1.04564 -0.49551,-2.06349 0.20336,-1.01395 1.2412,-1.70503 1.07295,-0.71446 2.08563,-0.5553 1.01917,0.16046 1.67388,1.14368 0.58716,0.88177 0.35786,1.7722 -0.2228,0.89173 -1.19821,1.54124 z m -0.26735,-0.85819 q 0.58395,-0.40011 0.71946,-0.95777 0.13811,-0.55376 -0.21522,-1.08438 -0.4001,-0.60086 -0.98116,-0.73768 -0.57846,-0.13292 -1.2313,0.22294 z"
       style="font-size:9.6px;fill:none;stroke:#ff0000"
       id="path159" />
  </g>
  <path
     d="M165.0,233.0 A68.0,68.0 0 0 0 178.26614189709673,231.69339906741968 L178.75386770213703,234.14536226842773 A70.5,70.5 0 0 1 165.0,235.5 z"
     fill="none"
     stroke="blue"
     id="path21" />
  <path
     d="M183.60908934287124,234.45006691018403 A71.9,71.9 0 0 0 196.8005568267462,229.48515011620032 L197.90627855229368,231.72733197003203 A74.4,74.4 0 0 1 184.25613695562754,236.86488147590669 z"
     fill="none"
     stroke="blue"
     id="path23" />
  <path
     d="M202.89999999999998,230.64472560686045 A75.8,75.8 0 0 0 214.9784127845852,221.98945740690647 L216.62677732233539,223.86905692560393 A78.3,78.3 0 0 1 204.14999999999998,232.80978911632155 z"
     fill="none"
     stroke="blue"
     id="path25" />
  <path
     d="M221.35641046056784,221.35641046056784 A79.7,79.7 0 0 0 231.26812810051285,209.27894757166231 L233.34680213126921,210.66787315421132 A82.2,82.2 0 0 1 223.1241774135342,223.1241774135342 z"
     fill="none"
     stroke="blue"
     id="path27" />
  <path
     d="M237.39972375637905,206.8 A83.6,83.6 0 0 0 244.16335882579082,191.8723392993443 L246.53068414952858,192.67593796260223 A86.1,86.1 0 0 1 239.56478726584015,208.05 z"
     fill="none"
     stroke="blue"
     id="path29" />
  <path
     d="M249.5185098002935,187.6466664464706 A87.5,87.5 0 0 0 252.3126557833778,170.72277380763754 L254.8073030914743,170.8862816307129 A90.0,90.0 0 0 1 251.93332436601614,188.2937140592269 z"
     fill="none"
     stroke="blue"
     id="path31" />
  <path
     d="M256.4,165.0 A91.4,91.4 0 0 0 254.64377462885528,147.1687445677259 L257.09573782986337,146.6810187626856 A93.9,93.9 0 0 1 258.9,165.0 z"
     fill="none"
     stroke="blue"
     id="path33" />
  <path
     d="M257.05273124534824,140.3345450017298 A95.3,95.3 0 0 0 250.4719722680652,122.84988782212919 L252.7141541218969,121.7441660965817 A97.8,97.8 0 0 1 259.46754581107086,139.6874973889735 z"
     fill="none"
     stroke="blue"
     id="path35" />
  <path
     d="M250.9097200554163,115.40000000000002 A99.2,99.2 0 0 0 239.5825089019146,99.5928951420732 L241.46210842061203,97.94453060432303 A101.7,101.7 0 0 1 253.0747835648774,114.15000000000002 z"
     fill="none"
     stroke="blue"
     id="path37" />
  <path
     d="M237.90270914033306,92.09729085966696 A103.1,103.1 0 0 0 222.27929102432103,79.27548297160762 L223.66821660687003,77.19680894085126 A105.6,105.6 0 0 1 239.6704760932994,90.32952390670059 z"
     fill="none"
     stroke="blue"
     id="path39" />
  <path
     d="M218.50000000000003,72.33528179506509 A107.0,107.0 0 0 0 199.3940227874383,63.678476144023705 L200.1976214506962,61.311150820285945 A109.5,109.5 0 0 1 219.75000000000003,70.17021828560398 z"
     fill="none"
     stroke="blue"
     id="path41" />
  <path
     d="M193.70303210186958,57.878825864542335 A110.9,110.9 0 0 0 172.25320703162294,54.337445412838875 L172.41671485469828,51.84279810474236 A113.4,113.4 0 0 1 194.35007971462588,55.464011298819656 z"
     fill="none"
     stroke="blue"
     id="path43" />
  <path
     d="M165.0,50.2 A114.8,114.8 0 0 0 142.60363103254852,52.40584980970914 L142.1159052275082,49.953886608701055 A117.3,117.3 0 0 1 165.00000000000003,47.7 z"
     fill="none"
     stroke="blue"
     id="path45" />
  <path
     d="M134.27817934633083,50.344604419487595 A118.69999999999999,118.69999999999999 0 0 0 112.50033247100458,58.5412055800699 L111.39461074545707,56.299023726238175 A121.19999999999999,121.19999999999999 0 0 1 133.63113173357453,47.929789853764916 z"
     fill="none"
     stroke="blue"
     id="path47" />
  <path
     d="M103.70000000000005,58.8252854960278 A122.6,122.6 0 0 0 84.16420306873161,72.82443960307734 L82.51583853098143,70.94484008437989 A125.1,125.1 0 0 1 102.45000000000005,56.66022198656671 z"
     fill="none"
     stroke="blue"
     id="path49" />
  <path
     d="M75.55099217990178,75.55099217990168 A126.5,126.5 0 0 0 59.819094043728086,94.72036552302022 L57.740420012971725,93.33143994047121 A129.0,129.0 0 0 1 73.78322522693541,73.78322522693531 z"
     fill="none"
     stroke="blue"
     id="path51" />
  <path
     d="M52.07028734650923,99.79999999999994 A130.4,130.4 0 0 0 41.52031111383823,123.0842937244677 L39.15298579010046,122.2806950612098 A132.9,132.9 0 0 1 49.90522383704814,98.54999999999994 z"
     fill="none"
     stroke="blue"
     id="path53" />
  <path
     d="M35.27616152937816,130.24060224273137 A134.3,134.3 0 0 0 30.987546609055528,156.21635974439172 L28.49289930095904,156.05285192131635 A136.8,136.8 0 0 1 32.86134696365548,129.59355462997505 z"
     fill="none"
     stroke="blue"
     id="path55" />
  <path
     d="M26.80000000000001,164.99999999999997 A138.2,138.2 0 0 0 29.455474248273532,191.9614825026288 L27.003511047265448,192.44920830766912 A140.7,140.7 0 0 1 24.30000000000001,164.99999999999997 z"
     fill="none"
     stroke="blue"
     id="path57" />
  <path
     d="M27.741940084323375,201.77818630906813 A142.1,142.1 0 0 0 37.55438342820497,227.84922288012004 L35.31220157437326,228.95494460566755 A144.6,144.6 0 0 1 25.327125518600724,202.42523392182443 z"
     fill="none"
     stroke="blue"
     id="path59" />
  <path
     d="M38.56029104747191,237.9999999999999 A146.0,146.0 0 0 0 55.23138810806924,261.26448900460997 L53.35178858937179,262.91285354236015 A148.5,148.5 0 0 1 36.3952275380108,239.2499999999999 z"
     fill="none"
     stroke="blue"
     id="path61" />
  <path
     d="M59.00469350013651,270.99530649986343 A149.89999999999998,149.89999999999998 0 0 0 81.72002207036152,289.63729488415146 L80.33109648781252,291.7159689149078 A152.39999999999998,152.39999999999998 0 0 1 57.23692654717014,272.7630734528298 z"
     fill="none"
     stroke="blue"
     id="path63" />
  <path
     d="M88.09999999999992,298.19470710204666 A153.8,153.8 0 0 0 115.5626102363737,310.63785391634724 L114.7590115731158,313.005179240085 A156.3,156.3 0 0 1 86.84999999999992,300.35977061150777 z"
     fill="none"
     stroke="blue"
     id="path65" />
  <path
     d="M124.18423658733235,317.32650280578605 A157.7,157.7 0 0 0 154.68592652040635,322.36235219472775 L154.52241869733098,324.85699950282424 A160.2,160.2 0 0 1 123.53718897457605,319.74131737150867 z"
     fill="none"
     stroke="blue"
     id="path67" />
</svg>
