<?xml version="1.0" encoding="utf-8" ?>
<svg baseProfile="full" height="320mm" version="1.1" viewBox="0 0 320 320" width="320mm" xmlns="http://www.w3.org/2000/svg" xmlns:ev="http://www.w3.org/2001/xml-events" xmlns:xlink="http://www.w3.org/1999/xlink"><defs /><circle cx="160" cy="160" fill="none" r="160" stroke="black" /><circle cx="160" cy="160" fill="none" r="5" stroke="blue" /><circle cx="195" cy="160" fill="none" r="3" stroke="blue" /><circle cx="160" cy="195" fill="none" r="3" stroke="blue" /><circle cx="125" cy="160" fill="none" r="3" stroke="blue" /><circle cx="160" cy="125" fill="none" r="3" stroke="blue" /><path d="M160,215 a55,55 0 1 1 0.1,0" fill="none" id="MyTextPath" stroke="none" /><text><textPath fill="none" font-size="0.8em" stroke="red" xlink:href="#MyTextPath">https://github.com/chbergmann/midi2organette</textPath></text><path d="M160.0,230.0 A70.0,70.0 0 0 0 173.656322541129,228.65496962822613 L174.14404834616928,231.1069328292342 A72.5,72.5 0 0 1 160.0,232.5 z" fill="none" stroke="blue" /><path d="M179.0879045763109,231.23702968881878 A73.75,73.75 0 0 0 192.61879090365136,226.14436468803575 L193.72451262919884,228.3865465418675 A76.25,76.25 0 0 1 179.7349521890672,233.65184425454146 z" fill="none" stroke="blue" /><path d="M198.75,227.116968793294 A77.5,77.5 0 0 0 211.09930067025533,218.26758507962074 L212.74766520800551,220.14718459831818 A80.0,80.0 0 0 1 200.0,229.2820323027551 z" fill="none" stroke="blue" /><path d="M217.45242597140697,217.452425971407 A81.25,81.25 0 0 0 227.55690599958177,205.1400814328427 L229.63558003033813,206.5290070153917 A83.75,83.75 0 0 1 219.22019292437335,219.22019292437335 z" fill="none" stroke="blue" /><path d="M233.61215932167727,202.5 A85.0,85.0 0 0 0 240.489061007084,187.32235455076875 L242.85638633082175,188.12595321402665 A87.5,87.5 0 0 1 235.77722283113837,203.75 z" fill="none" stroke="blue" /><path d="M245.7259170831548,182.97019025284874 A88.75,88.75 0 0 0 248.55997943742608,165.8045277191752 L251.05462674552257,165.96803554225056 A91.25,91.25 0 0 1 248.14073164887748,183.61723786560503 z" fill="none" stroke="blue" /><path d="M252.5,160.0 A92.5,92.5 0 0 0 250.72263843729883,141.95414521350816 L253.1746016383069,141.46641940846786 A95.0,95.0 0 0 1 255.0,160.0 z" fill="none" stroke="blue" /><path d="M252.97036078032284,135.08866690888237 A96.25,96.25 0 0 0 246.32400137252125,117.42971356642114 L248.56618322635296,116.32399184087365 A98.75,98.75 0 0 1 255.38517534604551,134.44161929612608 z" fill="none" stroke="blue" /><path d="M246.60254037844388,110.00000000000003 A100.0,100.0 0 0 0 235.18398074789778,94.06541848999315 L237.0635802665952,92.41705395224298 A102.5,102.5 0 0 1 248.76760388790495,108.75000000000003 z" fill="none" stroke="blue" /><path d="M233.3623285481043,86.6376714518957 A103.75,103.75 0 0 0 217.64041167578375,73.73502772361095 L219.02933725833276,71.6563536928546 A106.25,106.25 0 0 1 235.13009550107068,84.86990449892933 z" fill="none" stroke="blue" /><path d="M213.75000000000003,66.90226909317286 A107.5,107.5 0 0 0 194.5547425200899,58.20501107927615 L195.3583411833478,55.83768575553839 A110.0,110.0 0 0 1 215.00000000000003,64.73720558371177 z" fill="none" stroke="blue" /><path d="M188.79361876765546,52.54075182534116 A111.25,111.25 0 0 0 167.27609812685347,48.98819478970536 L167.43960594992882,46.49354748160886 A113.75,113.75 0 0 1 189.44066638041176,50.125937259618496 z" fill="none" stroke="blue" /><path d="M160.0,45.0 A115.0,115.0 0 0 0 137.5646129681453,47.20969275362849 L137.07688716310497,44.75772955262042 A117.5,117.5 0 0 1 160.00000000000003,42.5 z" fill="none" stroke="blue" /><path d="M129.2652383940757,45.29630812817312 A118.75,118.75 0 0 0 107.47821803649362,53.49636194299326 L106.37249631094612,51.25418008916154 A121.25,121.25 0 0 1 128.6181907813194,42.88149356245046 z" fill="none" stroke="blue" /><path d="M98.75000000000003,53.91188803640624 A122.5,122.5 0 0 0 79.2301376502416,67.89962358382523 L77.58177311249143,66.02002406512779 A125.0,125.0 0 0 1 97.50000000000003,51.74682452694515 z" fill="none" stroke="blue" /><path d="M70.72776887519842,70.72776887519832 A126.25,126.25 0 0 0 55.026961446803725,89.85925808127513 L52.948287416047364,88.47033249872612 A128.75,128.75 0 0 1 68.96000192223205,68.96000192223195 z" fill="none" stroke="blue" /><path d="M47.416697508023006,94.99999999999994 A130.0,130.0 0 0 0 36.89908316563627,118.21286951058897 L34.53175784189851,117.40927084733106 A132.5,132.5 0 0 1 45.251633998561914,93.74999999999994 z" fill="none" stroke="blue" /><path d="M30.807420733837148,125.38295271753775 A133.75,133.75 0 0 0 26.536369016836773,151.2523314654683 L24.041721708740283,151.08882364239292 A136.25,136.25 0 0 1 28.39260616811447,124.73590510478144 z" fill="none" stroke="blue" /><path d="M22.5,159.99999999999997 A137.5,137.5 0 0 0 25.142023944555774,186.82491927721753 L22.69006074354772,187.31264508225783 A140.0,140.0 0 0 1 20.0,159.99999999999997 z" fill="none" stroke="blue" /><path d="M23.562977036669082,196.55819012073098 A141.25,141.25 0 0 0 33.31672525850776,222.4732774934339 L31.074543404676035,223.57899921898138 A143.75,143.75 0 0 1 21.148162470946403,197.2052377334873 z" fill="none" stroke="blue" /><path d="M34.42631645125634,232.4999999999999 A145.0,145.0 0 0 0 50.98322791554821,255.60514318950993 L49.103628396850766,257.25350772726006 A147.5,147.5 0 0 1 32.261252941795235,233.7499999999999 z" fill="none" stroke="blue" /><path d="M54.81786629850103,265.1821337014989 A148.75,148.75 0 0 0 77.35892783833405,283.6811048300035 L75.97000225578505,285.75977886075987 A151.25,151.25 0 0 1 53.05009934553466,266.9499006544653 z" fill="none" stroke="blue" /><path d="M83.74999999999993,292.06887407712685 A152.5,152.5 0 0 0 110.9804815412678,304.4068447480036 L110.1768828780099,306.77417007174137 A155.0,155.0 0 0 1 82.49999999999993,294.23393758658796 z" fill="none" stroke="blue" /><path d="M119.55952420273101,310.9259103576669 A156.25,156.25 0 0 0 149.78076105779004,315.9154567560318 L149.6172532347147,318.4101040641283 A158.75,158.75 0 0 1 118.9124765899747,313.34072492338953 z" fill="none" stroke="blue" /></svg>